<?xml version="1.0" encoding="utf-8"?>
<!-- Generator: Adobe Illustrator 23.0.4, SVG Export Plug-In . SVG Version: 6.00 Build 0)  -->
<svg version="1.1" id="Layer_1" xmlns="http://www.w3.org/2000/svg" xmlns:xlink="http://www.w3.org/1999/xlink" x="0px" y="0px"
	 viewBox="0 0 810.9 404" style="enable-background:new 0 0 810.9 404;" xml:space="preserve">
<style type="text/css">
	.st0{fill:#FFFFFF;}
</style>
<title>Map-sa</title>
<g>
	<g>
		<path d="M75.9,97.7h42.7c2.2,0,4,1.8,4,4v4.3c0,2.2-1.8,4-4,4H75.9c-2.2,0-4-1.8-4-4v-4.3C71.9,99.5,73.7,97.7,75.9,97.7z"/>
		<g>
			<path class="st0" d="M77.2,107c-0.8-0.3-1.5-0.9-2-1.7c-0.3-0.6-0.5-1.2-0.5-1.9c0-0.4,0.1-0.9,0.2-1.3c0.2-0.4,0.4-0.8,0.7-1.1
				c0.3-0.3,0.6-0.6,1-0.8c0.6-0.3,1.2-0.5,1.9-0.5c0.5,0,1,0.1,1.4,0.3c0.5,0.2,0.9,0.5,1.2,0.8l-0.8,0.7c-0.2-0.3-0.5-0.5-0.9-0.6
				c-0.8-0.3-1.6-0.3-2.3,0.1c-0.4,0.2-0.8,0.6-1,1c-0.2,0.4-0.4,0.9-0.4,1.4c0,0.5,0.1,1,0.4,1.4c0.2,0.4,0.6,0.8,1,1
				c0.4,0.2,0.8,0.4,1.3,0.4c0.3,0,0.7-0.1,1-0.2c0.3-0.2,0.6-0.4,0.9-0.7L81,106c-0.4,0.4-0.8,0.6-1.2,0.8
				c-0.5,0.2-0.9,0.3-1.4,0.3C78,107.2,77.6,107.1,77.2,107z"/>
			<path class="st0" d="M87.2,105.7h-3.8l-0.6,1.5h-1.2l3.1-7.2H86l3.1,7.2h-1.2L87.2,105.7z M86.8,104.7l-1.5-3.4l-1.5,3.4H86.8z"
				/>
			<path class="st0" d="M90.2,99.9h1.1l4.2,5.5v-5.5h1.1v7.2h-1.1l-4.2-5.5v5.5h-1.1V99.9z"/>
			<path class="st0" d="M103.3,105.7h-3.8l-0.6,1.5h-1.2l3.1-7.2h1.2l3.1,7.2h-1.2L103.3,105.7z M102.9,104.7l-1.5-3.4l-1.5,3.4
				H102.9z"/>
		</g>
		<g>
			<path class="st0" d="M106.3,99.9h2.5c0.7,0,1.4,0.1,2.1,0.5c0.6,0.3,1.1,0.7,1.4,1.3c0.3,0.6,0.5,1.2,0.5,1.9
				c0,0.7-0.2,1.3-0.5,1.9c-0.3,0.6-0.8,1-1.4,1.3c-0.6,0.3-1.4,0.5-2.1,0.5h-2.5V99.9z M108.9,106.2c0.5,0,1-0.1,1.5-0.3
				c0.4-0.2,0.8-0.6,1-1c0.5-0.9,0.5-1.9,0-2.7c-0.2-0.4-0.6-0.7-1-0.9c-0.5-0.2-1-0.3-1.5-0.3h-1.5v5.3L108.9,106.2z"/>
		</g>
		<g>
			<path class="st0" d="M118.8,105.7H115l-0.6,1.5h-1.2l3.1-7.2h1.2l3.1,7.2h-1.2L118.8,105.7z M118.3,104.7l-1.5-3.4l-1.5,3.4
				H118.3z"/>
		</g>
	</g>
	<g>
		<path d="M308,120.7h42.7c2.2,0,4,1.8,4,4v4.3c0,2.2-1.8,4-4,4H308c-2.2,0-4-1.8-4-4v-4.3C304,122.5,305.8,120.7,308,120.7z"/>
		<g>
			<path class="st0" d="M307.1,122.9h1.1v7.2h-1.1V122.9z"/>
			<path class="st0" d="M315.3,126.2c-0.2,0.3-0.4,0.6-0.6,0.8c-0.3,0.2-0.6,0.4-1,0.5l1.8,2.6h-1.2l-1.8-2.5h-1.7v2.5h-1v-7.2h3
				c0.5,0,0.9,0.1,1.4,0.3c0.4,0.2,0.8,0.5,1,0.8c0.2,0.4,0.4,0.8,0.4,1.2C315.5,125.6,315.5,125.9,315.3,126.2z M310.9,126.6h1.8
				c0.3,0,0.6,0,0.9-0.2c0.2-0.1,0.5-0.3,0.6-0.5c0.1-0.2,0.2-0.5,0.2-0.7c0-0.3-0.1-0.5-0.2-0.7c-0.2-0.2-0.4-0.4-0.6-0.5
				c-0.3-0.1-0.6-0.2-0.9-0.2h-1.8V126.6z"/>
			<path class="st0" d="M317.8,123.9v2.1h3.8v1h-3.8v2.2h4.2v1h-5.3v-7.2h5.3v1L317.8,123.9z"/>
			<path class="st0" d="M328.2,129.1v1h-4.9v-7.2h1.1v6.2L328.2,129.1z"/>
			<path class="st0" d="M334.4,128.6h-3.8l-0.6,1.5h-1.2l3.1-7.2h1.2l3.1,7.2h-1.2L334.4,128.6z M334,127.6l-1.5-3.4l-1.5,3.4H334z"
				/>
			<path class="st0" d="M337.4,122.9h1.1l4.2,5.5v-5.5h1.1v7.2h-1.1l-4.2-5.5v5.5h-1.1V122.9z"/>
			<path class="st0" d="M345.5,122.9h2.5c0.7,0,1.4,0.1,2.1,0.5c0.6,0.3,1.1,0.7,1.4,1.3c1,1.7,0.5,3.8-1.2,4.9
				c-0.1,0-0.2,0.1-0.2,0.1c-0.6,0.3-1.4,0.5-2.1,0.5h-2.5L345.5,122.9z M348.1,129.1c0.5,0,1-0.1,1.5-0.3c0.4-0.2,0.8-0.5,1-0.9
				c0.5-0.9,0.5-1.9,0-2.7c-0.2-0.4-0.6-0.7-1-0.9c-0.5-0.2-1-0.3-1.5-0.3h-1.5v5.3H348.1z"/>
		</g>
	</g>
	<g>
		<path d="M311.6,168h54.8c2.2,0,4,1.8,4,4v4.3c0,2.2-1.8,4-4,4h-54.8c-2.2,0-4-1.8-4-4V172C307.6,169.7,309.4,168,311.6,168z"/>
		<g>
			<path class="st0" d="M310.7,170.2h3c0.5,0,0.9,0.1,1.4,0.3c0.4,0.2,0.8,0.5,1,0.8c0.2,0.4,0.4,0.8,0.4,1.2c0,0.4-0.1,0.8-0.4,1.2
				c-0.3,0.4-0.6,0.7-1,0.9c-0.4,0.2-0.9,0.3-1.4,0.3h-2v2.5h-1.1L310.7,170.2z M313.6,173.9c0.3,0,0.6,0,0.9-0.2
				c0.2-0.1,0.5-0.3,0.6-0.5c0.1-0.2,0.2-0.5,0.2-0.7c0-0.3-0.1-0.5-0.2-0.7c-0.2-0.2-0.4-0.4-0.6-0.5c-0.3-0.1-0.6-0.2-0.9-0.2
				h-1.8v2.7H313.6z"/>
			<path class="st0" d="M319.7,177.4c-0.4-0.2-0.8-0.4-1.1-0.7c-0.3-0.3-0.6-0.6-0.8-1c-0.3-0.6-0.5-1.2-0.5-1.9
				c0-0.4,0.1-0.9,0.2-1.3c0.2-0.4,0.4-0.8,0.7-1.1c0.3-0.3,0.6-0.6,1-0.8c0.6-0.3,1.2-0.5,1.9-0.5c0.4,0,0.9,0.1,1.3,0.2
				c0.4,0.1,0.8,0.4,1.1,0.6c0.3,0.3,0.6,0.6,0.9,1c0.3,0.6,0.5,1.2,0.5,1.9c0,0.4-0.1,0.9-0.2,1.3c-0.1,0.4-0.4,0.8-0.6,1.1
				c-0.7,0.8-1.7,1.3-2.9,1.4C320.6,177.6,320.1,177.5,319.7,177.4z M322.3,176.2c0.8-0.5,1.3-1.4,1.3-2.4c0-0.5-0.1-0.9-0.4-1.4
				c-0.2-0.4-0.6-0.8-1-1c-0.4-0.2-0.8-0.4-1.3-0.4c-0.5,0-0.9,0.1-1.3,0.4c-0.4,0.2-0.8,0.6-1,1c-0.2,0.4-0.4,0.9-0.4,1.4
				c0,0.5,0.1,1,0.4,1.4c0.2,0.4,0.6,0.8,1,1c0.4,0.2,0.9,0.4,1.3,0.4C321.4,176.6,321.9,176.5,322.3,176.2z"/>
			<path class="st0" d="M331.5,173.6c-0.2,0.3-0.4,0.6-0.6,0.8c-0.3,0.2-0.6,0.4-1,0.5l1.9,2.6h-1.2l-1.8-2.5h-1.7v2.5h-1v-7.2h3
				c0.5,0,0.9,0.1,1.4,0.3c0.4,0.2,0.8,0.5,1,0.8c0.2,0.4,0.4,0.8,0.4,1.2C331.8,172.9,331.7,173.3,331.5,173.6z M327.1,173.9h1.8
				c0.3,0,0.6,0,0.9-0.2c0.2-0.1,0.5-0.3,0.6-0.5c0.1-0.2,0.2-0.5,0.2-0.7c0-0.3-0.1-0.5-0.2-0.7c-0.2-0.2-0.4-0.4-0.6-0.5
				c-0.3-0.1-0.6-0.2-0.9-0.2h-1.8V173.9z"/>
			<path class="st0" d="M335,171.2h-2.4v-1h5.8v1h-2.4v6.2H335V171.2z"/>
			<path class="st0" d="M341.2,177.2c-0.5-0.3-0.9-0.7-1.1-1.1c-0.3-0.5-0.4-1.1-0.4-1.6v-4.2h1.1v4.2c0,0.4,0.1,0.8,0.2,1.1
				c0.2,0.3,0.4,0.6,0.7,0.8c0.6,0.4,1.5,0.4,2.1,0c0.3-0.2,0.6-0.5,0.7-0.8c0.2-0.4,0.3-0.7,0.2-1.1v-4.2h1.1v4.2
				c0,0.6-0.1,1.1-0.4,1.6c-0.3,0.5-0.6,0.9-1.1,1.1c-0.5,0.3-1,0.4-1.6,0.4C342.3,177.6,341.7,177.5,341.2,177.2z"/>
			<path class="st0" d="M350.9,173.5h3v2.9c-0.4,0.4-0.8,0.6-1.3,0.8c-0.5,0.2-1,0.3-1.5,0.3c-0.4,0-0.9-0.1-1.3-0.2
				c-0.4-0.2-0.8-0.4-1.1-0.7c-0.3-0.3-0.6-0.6-0.9-1c-0.3-0.6-0.5-1.2-0.5-1.9c0-0.4,0.1-0.9,0.2-1.3c0.2-0.4,0.4-0.8,0.7-1.1
				c0.3-0.3,0.6-0.6,1-0.8c0.6-0.3,1.2-0.5,1.9-0.5c0.5,0,1.1,0.1,1.6,0.3c0.5,0.2,0.9,0.5,1.3,0.8l-0.7,0.7c-0.3-0.3-0.6-0.5-1-0.6
				c-0.4-0.2-0.8-0.2-1.1-0.2c-0.5,0-0.9,0.1-1.3,0.4c-0.4,0.2-0.8,0.6-1,1c-0.2,0.4-0.4,0.9-0.4,1.4c0,0.5,0.1,1,0.4,1.4
				c0.2,0.4,0.6,0.8,1,1c0.4,0.2,0.9,0.4,1.3,0.4c0.3,0,0.6-0.1,0.9-0.2c0.3-0.1,0.6-0.3,0.9-0.4v-1.5h-1.9L350.9,173.5z"/>
			<path class="st0" d="M360.4,176h-3.8l-0.6,1.5h-1.2l3.1-7.2h1.2l3.1,7.2h-1.2L360.4,176z M360,175l-1.5-3.4l-1.5,3.4H360z"/>
			<path class="st0" d="M368.1,176.5v1h-4.9v-7.2h1.1v6.2L368.1,176.5z"/>
		</g>
	</g>
	<g>
		<path d="M383.9,113.2h86.9c2.2,0,4,1.8,4,4v4.3c0,2.2-1.8,4-4,4h-86.9c-2.2,0-4-1.8-4-4v-4.3C379.9,115,381.6,113.2,383.9,113.2z"
			/>
		<g>
			<path class="st0" d="M385.1,122.5c-0.8-0.3-1.5-0.9-2-1.7c-0.3-0.6-0.5-1.2-0.5-1.9c0-0.4,0.1-0.9,0.2-1.3
				c0.2-0.4,0.4-0.8,0.7-1.1c0.3-0.3,0.6-0.6,1-0.8c0.6-0.3,1.2-0.5,1.9-0.5c0.5,0,1,0.1,1.4,0.3c0.5,0.2,0.9,0.5,1.2,0.8l-0.8,0.7
				c-0.2-0.3-0.5-0.5-0.9-0.6c-0.8-0.3-1.6-0.3-2.3,0.1c-0.4,0.2-0.8,0.6-1,1c-0.2,0.4-0.4,0.9-0.4,1.4c0,0.5,0.1,1,0.4,1.4
				c0.2,0.4,0.6,0.8,1,1c0.4,0.2,0.8,0.4,1.3,0.4c0.3,0,0.7-0.1,1-0.2c0.3-0.2,0.6-0.4,0.9-0.7l0.8,0.7c-0.4,0.4-0.8,0.6-1.2,0.8
				c-0.5,0.2-0.9,0.3-1.4,0.3C385.8,122.7,385.4,122.7,385.1,122.5z"/>
			<path class="st0" d="M389.9,121.8l4.2-5.4H390v-1h5.5v0.8l-4.2,5.4h4.2v1h-5.7L389.9,121.8z"/>
			<path class="st0" d="M398,116.4v2.1h3.8v1H398v2.2h4.2v1h-5.3v-7.2h5.3v1L398,116.4z"/>
			<path class="st0" d="M405.8,122.5c-0.8-0.3-1.5-0.9-2-1.7c-0.3-0.6-0.5-1.2-0.5-1.9c0-0.4,0.1-0.9,0.2-1.3
				c0.2-0.4,0.4-0.8,0.7-1.1c0.3-0.3,0.6-0.6,1-0.8c0.6-0.3,1.2-0.5,1.9-0.5c0.5,0,1,0.1,1.4,0.3c0.5,0.2,0.9,0.5,1.2,0.8l-0.8,0.7
				c-0.2-0.3-0.5-0.5-0.9-0.6c-0.8-0.3-1.6-0.3-2.4,0.1c-0.4,0.2-0.8,0.6-1,1c-0.2,0.4-0.4,0.9-0.4,1.4c0,0.5,0.1,1,0.4,1.4
				c0.2,0.4,0.6,0.8,1,1c0.4,0.2,0.8,0.4,1.3,0.4c0.3,0,0.7-0.1,1-0.2c0.3-0.2,0.6-0.4,0.9-0.7l0.8,0.7c-0.4,0.4-0.8,0.6-1.2,0.8
				c-0.5,0.2-0.9,0.3-1.4,0.3C406.5,122.7,406.1,122.7,405.8,122.5z"/>
			<path class="st0" d="M416.9,115.4v7.2h-1.1v-3.2h-4v3.2h-1.1v-7.2h1.1v3h4v-3H416.9z"/>
			<path class="st0" d="M426.9,118.8c-0.2,0.3-0.4,0.6-0.7,0.8c-0.3,0.2-0.6,0.4-1,0.5l1.8,2.6h-1.2l-1.8-2.5h-1.7v2.5h-1.1v-7.2h3
				c0.5,0,0.9,0.1,1.4,0.3c0.4,0.2,0.8,0.5,1,0.8c0.2,0.4,0.4,0.8,0.4,1.2C427.1,118.1,427.1,118.4,426.9,118.8z M422.5,119.1h1.8
				c0.3,0,0.6,0,0.9-0.2c0.2-0.1,0.5-0.3,0.6-0.5c0.1-0.2,0.2-0.5,0.2-0.7c0-0.3-0.1-0.5-0.2-0.7c-0.2-0.2-0.4-0.4-0.6-0.5
				c-0.3-0.1-0.6-0.2-0.9-0.2h-1.8V119.1z"/>
			<path class="st0" d="M429.5,116.4v2.1h3.8v1h-3.8v2.2h4.2v1h-5.3v-7.2h5.3v1L429.5,116.4z"/>
			<path class="st0" d="M435.1,115.4h3c0.5,0,0.9,0.1,1.4,0.3c0.4,0.2,0.8,0.5,1,0.8c0.2,0.4,0.4,0.8,0.3,1.2c0,0.4-0.1,0.8-0.4,1.2
				c-0.2,0.4-0.6,0.7-1,0.8c-0.4,0.2-0.9,0.3-1.4,0.3h-2v2.5h-1V115.4z M437.9,119.1c0.3,0,0.6,0,0.9-0.2c0.2-0.1,0.5-0.3,0.6-0.5
				c0.2-0.2,0.2-0.5,0.2-0.7c0-0.3-0.1-0.5-0.2-0.7c-0.2-0.2-0.4-0.4-0.6-0.5c-0.3-0.1-0.6-0.2-0.9-0.2h-1.8v2.7L437.9,119.1z"/>
			<path class="st0" d="M443.4,122.3c-0.5-0.3-0.9-0.7-1.1-1.1c-0.3-0.5-0.4-1.1-0.4-1.6v-4.2h1.1v4.2c0,0.4,0.1,0.8,0.2,1.1
				c0.2,0.3,0.4,0.6,0.7,0.8c0.6,0.4,1.5,0.4,2.1,0c0.3-0.2,0.6-0.5,0.7-0.8c0.2-0.4,0.3-0.7,0.2-1.1v-4.2h1.1v4.2
				c0,0.6-0.1,1.1-0.4,1.6c-0.3,0.5-0.6,0.9-1.1,1.1c-0.5,0.3-1,0.4-1.6,0.4C444.5,122.8,443.9,122.6,443.4,122.3z"/>
			<path class="st0" d="M449.9,115.4h3.4c0.4,0,0.7,0.1,1.1,0.2c0.3,0.1,0.6,0.4,0.7,0.6c0.3,0.6,0.3,1.3,0,1.8
				c-0.2,0.3-0.5,0.5-0.8,0.7c0.4,0.2,0.7,0.4,1,0.8c0.2,0.3,0.4,0.7,0.3,1.1c0,0.4-0.1,0.7-0.3,1c-0.2,0.3-0.5,0.5-0.8,0.7
				c-0.4,0.2-0.8,0.3-1.1,0.2h-3.6L449.9,115.4z M453.1,118.4c0.2,0,0.4,0,0.6-0.1c0.2-0.1,0.3-0.2,0.4-0.4c0.2-0.3,0.2-0.7,0-1.1
				c-0.1-0.2-0.3-0.3-0.4-0.4c-0.2-0.1-0.4-0.1-0.6-0.1H451v2.1H453.1z M453.2,121.7c0.2,0,0.5,0,0.7-0.2c0.2-0.1,0.4-0.2,0.5-0.4
				c0.2-0.4,0.2-0.9,0-1.2c-0.1-0.2-0.3-0.3-0.5-0.4c-0.2-0.1-0.5-0.2-0.7-0.2H451v2.4H453.2z"/>
			<path class="st0" d="M461.8,121.6v1h-4.9v-7.2h1.1v6.2L461.8,121.6z"/>
			<path class="st0" d="M462.9,115.4h1.1v7.2H463L462.9,115.4z"/>
			<path class="st0" d="M467.8,122.5c-0.4-0.2-0.8-0.4-1.1-0.7c-0.3-0.3-0.6-0.6-0.8-1c-0.3-0.6-0.5-1.2-0.5-1.9
				c0-0.4,0.1-0.9,0.2-1.3c0.2-0.4,0.4-0.8,0.7-1.1c0.3-0.3,0.6-0.6,1-0.8c0.6-0.3,1.2-0.5,1.9-0.5c0.5,0,1,0.1,1.4,0.3
				c0.5,0.2,0.9,0.5,1.2,0.8l-0.8,0.7c-0.2-0.3-0.5-0.5-0.9-0.6c-0.3-0.2-0.7-0.2-1-0.2c-0.5,0-0.9,0.1-1.3,0.4
				c-0.4,0.2-0.8,0.6-1,1c-0.2,0.4-0.4,0.9-0.4,1.4c0,0.5,0.1,1,0.4,1.4c0.2,0.4,0.6,0.8,1,1c0.4,0.2,0.8,0.4,1.3,0.4
				c0.4,0,0.7-0.1,1-0.2c0.3-0.2,0.6-0.4,0.9-0.7l0.8,0.7c-0.4,0.4-0.8,0.6-1.2,0.8c-0.5,0.2-0.9,0.3-1.4,0.3
				C468.6,122.7,468.2,122.7,467.8,122.5z"/>
		</g>
	</g>
	<g>
		<path d="M420.9,97.8h41.9c2.2,0,4,1.8,4,4v4.3c0,2.2-1.8,4-4,4h-41.9c-2.2,0-4-1.8-4-4v-4.3C416.9,99.6,418.7,97.8,420.9,97.8z"/>
		<g>
			<path class="st0" d="M420,100.1h3c0.5,0,0.9,0.1,1.4,0.3c0.4,0.2,0.8,0.5,1,0.8c0.2,0.4,0.4,0.8,0.3,1.2c0,0.4-0.1,0.8-0.3,1.2
				c-0.3,0.4-0.6,0.7-1,0.8c-0.4,0.2-0.9,0.3-1.4,0.3h-2v2.5h-1.1L420,100.1z M422.9,103.8c0.3,0,0.6,0,0.9-0.2
				c0.2-0.1,0.5-0.3,0.6-0.5c0.1-0.2,0.2-0.5,0.2-0.7c0-0.3-0.1-0.5-0.2-0.7c-0.2-0.2-0.4-0.4-0.6-0.5c-0.3-0.1-0.6-0.2-0.9-0.2
				h-1.8v2.7L422.9,103.8z"/>
			<path class="st0" d="M429,107.2c-0.4-0.2-0.8-0.4-1.1-0.7c-0.3-0.3-0.6-0.6-0.8-1c-0.3-0.6-0.5-1.2-0.5-1.9
				c0-0.4,0.1-0.9,0.2-1.3c0.2-0.4,0.4-0.8,0.7-1.1c0.3-0.3,0.6-0.6,1-0.8c0.6-0.3,1.2-0.5,1.9-0.5c0.4,0,0.9,0.1,1.3,0.2
				c0.4,0.1,0.8,0.4,1.1,0.7c0.3,0.3,0.6,0.6,0.8,1c0.3,0.6,0.5,1.2,0.5,1.9c0,0.4-0.1,0.9-0.2,1.3c-0.1,0.4-0.4,0.8-0.7,1.1
				c-0.3,0.3-0.6,0.6-1,0.8c-0.6,0.3-1.2,0.5-1.9,0.5C429.9,107.4,429.4,107.3,429,107.2z M431.6,106.1c0.8-0.5,1.3-1.4,1.3-2.4
				c0-0.5-0.1-0.9-0.4-1.4c-0.2-0.4-0.6-0.8-1-1c-0.4-0.2-0.9-0.4-1.3-0.4c-0.5,0-0.9,0.1-1.3,0.4c-0.4,0.2-0.8,0.6-1,1
				c-0.2,0.4-0.4,0.9-0.4,1.4c0,0.5,0.1,1,0.4,1.4c0.2,0.4,0.6,0.8,1,1c0.4,0.2,0.8,0.4,1.3,0.4
				C430.7,106.4,431.2,106.3,431.6,106.1z"/>
			<path class="st0" d="M440.2,106.3v1h-4.9v-7.2h1.1v6.2L440.2,106.3z"/>
			<path class="st0" d="M446.3,105.8h-3.8l-0.6,1.5h-1.2l3.1-7.2h1.2l3.1,7.2h-1.2L446.3,105.8z M445.9,104.8l-1.5-3.4l-1.5,3.4
				H445.9z"/>
			<path class="st0" d="M449.3,100.1h1.1l4.2,5.5v-5.5h1.1v7.2h-1.1l-4.2-5.5v5.5h-1.1V100.1z"/>
			<path class="st0" d="M457.5,100.1h2.5c0.7,0,1.4,0.1,2.1,0.5c1.2,0.6,2,1.8,1.9,3.2c0,1.3-0.7,2.6-1.9,3.2
				c-0.6,0.3-1.4,0.5-2.1,0.5h-2.5V100.1z M460,106.3c0.5,0,1-0.1,1.5-0.3c0.4-0.2,0.8-0.6,1-1c0.5-0.9,0.5-1.9,0-2.7
				c-0.2-0.4-0.6-0.7-1-0.9c-0.5-0.2-1-0.3-1.5-0.3h-1.5v5.3L460,106.3z"/>
		</g>
	</g>
	<g>
		<path d="M465.3,165.4h49.9c2.2,0,4,1.8,4,4v4.3c0,2.2-1.8,4-4,4h-49.9c-2.2,0-4-1.8-4-4v-4.3C461.3,167.1,463.1,165.4,465.3,165.4
			z"/>
		<g>
			<path class="st0" d="M469.8,174v1h-4.9v-7.2h1.1v6.2H469.8z"/>
			<path class="st0" d="M472,168.7v2.1h3.8v1H472v2.2h4.2v1h-5.3v-7.2h5.3v1L472,168.7z"/>
			<path class="st0" d="M477.7,167.7h3.4c0.4,0,0.7,0.1,1.1,0.2c0.3,0.1,0.6,0.4,0.7,0.6c0.3,0.6,0.3,1.3,0,1.9
				c-0.2,0.3-0.5,0.5-0.8,0.7c0.4,0.2,0.7,0.4,1,0.8c0.2,0.3,0.3,0.7,0.3,1.1c0,0.4-0.1,0.7-0.3,1c-0.2,0.3-0.5,0.5-0.8,0.7
				c-0.4,0.2-0.8,0.3-1.2,0.3h-3.6V167.7z M480.8,170.7c0.2,0,0.4,0,0.6-0.1c0.2-0.1,0.3-0.2,0.4-0.4c0.2-0.3,0.2-0.7,0-1.1
				c-0.1-0.2-0.3-0.3-0.4-0.4c-0.2-0.1-0.4-0.1-0.6-0.1h-2.1v2.1H480.8z M481,174c0.2,0,0.5,0,0.7-0.1c0.2-0.1,0.4-0.2,0.5-0.4
				c0.2-0.4,0.2-0.9,0-1.2c-0.1-0.2-0.3-0.3-0.5-0.4c-0.2-0.1-0.5-0.2-0.7-0.1h-2.3v2.4L481,174z"/>
			<path class="st0" d="M489.8,173.5h-3.8l-0.6,1.5h-1.2l3.1-7.2h1.2l3.1,7.2h-1.2L489.8,173.5z M489.4,172.5l-1.5-3.4l-1.5,3.4
				L489.4,172.5z"/>
			<path class="st0" d="M492.8,167.7h1.1l4.2,5.5v-5.5h1.1v7.2H498l-4.2-5.5v5.5h-1.1V167.7z"/>
			<path class="st0" d="M503,174.9c-0.8-0.3-1.5-0.9-2-1.6c-0.3-0.6-0.5-1.2-0.5-1.9c0-0.4,0.1-0.9,0.2-1.3c0.2-0.4,0.4-0.8,0.7-1.1
				c0.3-0.3,0.6-0.6,1-0.9c1-0.6,2.1-0.7,3.1-0.3c0.4,0.2,0.8,0.4,1.1,0.7c0.3,0.3,0.6,0.6,0.9,1c0.3,0.6,0.5,1.2,0.5,1.9
				c0,0.4-0.1,0.9-0.2,1.3c-0.2,0.4-0.4,0.8-0.6,1.1c-0.3,0.3-0.6,0.6-1,0.8c-0.6,0.3-1.2,0.5-1.9,0.5
				C503.8,175.1,503.4,175,503,174.9z M505.6,173.7c0.4-0.2,0.8-0.6,1-1c0.2-0.4,0.4-0.9,0.3-1.4c0-0.5-0.1-0.9-0.4-1.4
				c-0.2-0.4-0.6-0.8-1-1c-0.4-0.3-0.8-0.4-1.3-0.4c-0.5,0-0.9,0.1-1.3,0.4c-0.4,0.2-0.8,0.6-1,1c-0.2,0.4-0.4,0.9-0.4,1.4
				c0,0.5,0.1,1,0.4,1.4c0.2,0.4,0.6,0.8,1,1c0.4,0.3,0.9,0.4,1.3,0.4C504.7,174.1,505.2,174,505.6,173.7z"/>
			<path class="st0" d="M509.5,167.7h1.1l4.2,5.5v-5.5h1.1v7.2h-1.1l-4.2-5.5v5.5h-1.1V167.7z"/>
		</g>
	</g>
	<g>
		<path d="M442.2,180.8H477c2.2,0,4,1.8,4,4v4.3c0,2.2-1.8,4-4,4h-34.8c-2.2,0-4-1.8-4-4v-4.3C438.2,182.5,439.9,180.8,442.2,180.8z
			"/>
		<g>
			<g>
				<path class="st0" d="M448.2,188.1c-0.1,0.4-0.3,0.7-0.6,1.1l0.8,0.7l-0.6,0.7l-0.8-0.7c-0.7,0.5-1.5,0.8-2.3,0.8
					c-0.4,0-0.9-0.1-1.3-0.2c-0.4-0.2-0.8-0.4-1.1-0.6c-0.3-0.3-0.6-0.6-0.9-1c-0.3-0.6-0.5-1.2-0.5-1.9c0-0.9,0.3-1.7,0.9-2.4
					c0.3-0.3,0.6-0.6,1-0.9c0.6-0.3,1.2-0.5,1.9-0.5c0.4,0,0.9,0.1,1.3,0.2c0.4,0.2,0.8,0.4,1.1,0.7c0.3,0.3,0.6,0.6,0.9,1
					C448.4,186,448.5,187,448.2,188.1L448.2,188.1z M446.2,189.1l-1-0.9l0.6-0.7l1.1,0.9c0.3-0.5,0.5-1,0.5-1.6
					c0-0.5-0.1-0.9-0.4-1.4c-0.2-0.4-0.6-0.8-1-1c-0.4-0.3-0.9-0.4-1.3-0.4c-0.5,0-0.9,0.1-1.3,0.4c-0.4,0.2-0.8,0.6-1,1
					c-0.5,0.8-0.5,1.9,0,2.7c0.2,0.4,0.6,0.8,1,1c0.4,0.3,0.8,0.4,1.3,0.4C445.2,189.6,445.8,189.5,446.2,189.1z"/>
			</g>
			<g>
				<path class="st0" d="M454.8,189h-3.7l-0.6,1.5h-1.2l3.1-7.2h1.2l3.1,7.2h-1.2L454.8,189z M454.4,188.1l-1.5-3.4l-1.5,3.4H454.4z
					"/>
			</g>
			<g>
				<path class="st0" d="M459.1,184.3h-2.4v-1h5.8v1h-2.4v6.2h-1V184.3z"/>
			</g>
			<g>
				<path class="st0" d="M468.1,189h-3.8l-0.6,1.5h-1.2l3.1-7.2h1.2l3.1,7.2h-1.2L468.1,189z M467.6,188.1l-1.5-3.4l-1.5,3.4H467.6z
					"/>
				<path class="st0" d="M476.4,186.6c-0.2,0.3-0.4,0.6-0.7,0.8c-0.3,0.2-0.6,0.4-1,0.5l1.9,2.6h-1.2l-1.8-2.5H472v2.5h-1.1v-7.2h3
					c0.5,0,0.9,0.1,1.4,0.3c0.4,0.2,0.8,0.5,1,0.8c0.2,0.4,0.4,0.8,0.4,1.2C476.6,186,476.6,186.3,476.4,186.6z M472,187h1.8
					c0.3,0,0.6-0.1,0.9-0.2c0.2-0.1,0.5-0.3,0.6-0.5c0.1-0.2,0.2-0.5,0.2-0.7c0-0.3-0.1-0.5-0.2-0.7c-0.2-0.2-0.4-0.4-0.6-0.5
					c-0.3-0.1-0.6-0.2-0.9-0.2H472V187z"/>
			</g>
		</g>
	</g>
	<g>
		<path d="M541.3,205.8h25.9c2.2,0,4,1.8,4,4v4.3c0,2.2-1.8,4-4,4h-25.9c-2.2,0-4-1.8-4-4v-4.3C537.3,207.6,539.1,205.8,541.3,205.8
			z"/>
		<g>
			<path class="st0" d="M540.4,208h1.1v7.2h-1.1V208z"/>
			<path class="st0" d="M543.2,208h1.1l4.2,5.5V208h1.1v7.2h-1.1l-4.2-5.5v5.5h-1.1V208z"/>
			<path class="st0" d="M551.3,208h2.5c0.7,0,1.4,0.1,2.1,0.5c1.7,0.9,2.4,3,1.6,4.7c-0.3,0.7-0.9,1.2-1.6,1.6
				c-0.6,0.3-1.4,0.5-2.1,0.5h-2.5L551.3,208z M553.9,214.3c0.5,0,1-0.1,1.5-0.3c0.4-0.2,0.8-0.5,1-0.9c0.5-0.9,0.5-1.9,0-2.7
				c-0.2-0.4-0.6-0.7-1-0.9c-0.5-0.2-1-0.3-1.5-0.3h-1.5v5.3H553.9z"/>
			<path class="st0" d="M559.2,208h1.1v7.2h-1.1V208z"/>
			<path class="st0" d="M566.9,213.7h-3.8l-0.6,1.5h-1.2l3.1-7.2h1.2l3.1,7.2h-1.2L566.9,213.7z M566.5,212.8l-1.5-3.4l-1.5,3.4
				H566.5z"/>
		</g>
	</g>
	<g>
		<path d="M400.4,163.5h26.7c2.2,0,4,1.8,4,4v4.3c0,2.2-1.8,4-4,4h-26.7c-2.2,0-4-1.8-4-4v-4.3C396.4,165.3,398.2,163.5,400.4,163.5
			z"/>
		<g>
			<path class="st0" d="M399.9,166h1.1v7.2h-1.1V166z"/>
		</g>
		<g>
			<path class="st0" d="M404.5,167h-2.4v-1h5.9v1h-2.4v6.2h-1.1L404.5,167z"/>
		</g>
		<g>
			<path class="st0" d="M413.6,171.8h-3.8l-0.6,1.5H408l3.1-7.2h1.2l3.1,7.2h-1.2L413.6,171.8z M413.1,170.8l-1.5-3.4l-1.5,3.4
				H413.1z"/>
			<path class="st0" d="M421.2,172.2v1h-4.9V166h1.1v6.2H421.2z"/>
			<path class="st0" d="M424.6,170.4l-2.9-4.4h1.3l2.2,3.4l2.2-3.4h1.2l-2.9,4.4v2.8h-1.1L424.6,170.4z"/>
		</g>
	</g>
	<g>
		<path d="M349.9,311h78c2.2,0,4,1.8,4,4v4.3c0,2.2-1.8,4-4,4h-78c-2.2,0-4-1.8-4-4V315C345.9,312.8,347.7,311,349.9,311z"/>
		<g>
			<path class="st0" d="M349.1,319.6l0.6-0.8c0.6,0.6,1.5,1,2.4,1c0.3,0,0.6,0,0.8-0.1c0.2-0.1,0.4-0.2,0.5-0.4
				c0.1-0.2,0.2-0.4,0.2-0.6c0-0.3-0.2-0.6-0.4-0.7c-0.4-0.2-0.9-0.4-1.4-0.5c-0.5-0.1-0.9-0.3-1.4-0.5c-0.3-0.1-0.6-0.4-0.8-0.6
				c-0.2-0.3-0.3-0.6-0.3-1c0-0.4,0.1-0.8,0.3-1.1c0.2-0.3,0.5-0.6,0.9-0.8c0.4-0.2,0.8-0.3,1.3-0.3c0.5,0,1,0.1,1.4,0.3
				c0.4,0.2,0.9,0.4,1.2,0.8l-0.6,0.8c-0.3-0.3-0.6-0.5-1-0.6c-0.3-0.1-0.7-0.2-1.1-0.2c-0.2,0-0.5,0-0.7,0.1
				c-0.2,0.1-0.4,0.2-0.5,0.4c-0.1,0.2-0.2,0.3-0.2,0.5c0,0.2,0.1,0.4,0.2,0.5c0.2,0.2,0.4,0.3,0.6,0.4c0.3,0.1,0.7,0.2,1,0.3
				c0.5,0.1,0.9,0.3,1.4,0.5c0.3,0.1,0.6,0.4,0.8,0.7c0.2,0.3,0.3,0.6,0.3,1c0,0.4-0.1,0.8-0.3,1.1c-0.2,0.3-0.5,0.6-0.9,0.8
				c-0.4,0.2-0.9,0.3-1.4,0.3C351,320.8,349.9,320.4,349.1,319.6z"/>
			<path class="st0" d="M358.2,320.5c-0.4-0.1-0.8-0.4-1.1-0.7c-0.3-0.3-0.6-0.6-0.9-1c-0.3-0.6-0.5-1.2-0.5-1.9
				c0-0.4,0.1-0.9,0.2-1.3c0.2-0.4,0.4-0.8,0.7-1.1c0.3-0.3,0.6-0.6,1-0.8c0.6-0.3,1.2-0.5,1.9-0.5c0.4,0,0.9,0.1,1.3,0.2
				c0.4,0.2,0.8,0.4,1.1,0.6c0.3,0.3,0.6,0.6,0.8,1c0.3,0.6,0.5,1.2,0.5,1.9c0,0.4-0.1,0.9-0.2,1.3c-0.2,0.4-0.4,0.8-0.6,1.1
				c-0.3,0.3-0.6,0.6-1,0.8c-0.6,0.3-1.2,0.5-1.9,0.5C359.1,320.8,358.7,320.7,358.2,320.5z M360.8,319.4c0.8-0.5,1.3-1.4,1.3-2.4
				c0-0.5-0.1-0.9-0.4-1.4c-0.2-0.4-0.6-0.8-1-1c-0.8-0.5-1.8-0.5-2.6,0c-0.4,0.2-0.8,0.6-1,1c-0.2,0.4-0.4,0.9-0.4,1.4
				c0,0.5,0.1,1,0.4,1.4c0.2,0.4,0.6,0.8,1,1C359,319.9,360,319.9,360.8,319.4L360.8,319.4z"/>
			<path class="st0" d="M366.1,320.4c-0.5-0.3-0.9-0.7-1.1-1.1c-0.3-0.5-0.4-1.1-0.4-1.6v-4.2h1.1v4.2c0,0.4,0.1,0.8,0.2,1.1
				c0.2,0.3,0.4,0.6,0.7,0.8c0.7,0.4,1.5,0.4,2.1,0c0.3-0.2,0.6-0.5,0.7-0.8c0.2-0.4,0.3-0.7,0.3-1.1v-4.2h1.1v4.2
				c0,0.6-0.1,1.1-0.4,1.6c-0.3,0.5-0.6,0.9-1.1,1.1c-0.5,0.3-1,0.4-1.6,0.4C367.2,320.8,366.6,320.6,366.1,320.4z"/>
			<path class="st0" d="M374.5,314.4h-2.4v-1h5.8v1h-2.4v6.2h-1.1V314.4z"/>
			<path class="st0" d="M385.2,313.4v7.2h-1.1v-3.2h-4v3.2h-1.1v-7.2h1.1v3h4v-3H385.2z"/>
			<path class="st0" d="M394.9,319.2h-3.8l-0.6,1.5h-1.2l3.1-7.2h1.2l3.1,7.2h-1.2L394.9,319.2z M394.4,318.2l-1.4-3.4l-1.5,3.4
				L394.4,318.2z"/>
			<path class="st0" d="M398.8,314.4v2.1h3.8v1h-3.8v3.1h-1.1v-7.2h5.3v1L398.8,314.4z"/>
			<path class="st0" d="M409.7,316.8c-0.2,0.3-0.4,0.6-0.6,0.8c-0.3,0.2-0.6,0.4-1,0.5l1.8,2.6h-1.2l-1.7-2.5h-1.7v2.5h-1.1v-7.2h3
				c0.5,0,0.9,0.1,1.4,0.3c0.4,0.2,0.8,0.5,1,0.8c0.2,0.4,0.4,0.8,0.4,1.2C410,316.1,409.9,316.5,409.7,316.8z M405.3,317.1h1.8
				c0.3,0,0.6,0,0.9-0.1c0.2-0.1,0.5-0.3,0.6-0.5c0.2-0.2,0.2-0.5,0.2-0.7c0-0.3-0.1-0.5-0.2-0.7c-0.2-0.2-0.4-0.4-0.6-0.5
				c-0.3-0.1-0.6-0.2-0.9-0.2h-1.8L405.3,317.1z"/>
			<path class="st0" d="M411.2,313.4h1.1v7.2h-1.1V313.4z"/>
			<path class="st0" d="M416,320.5c-0.4-0.2-0.8-0.4-1.1-0.7c-0.3-0.3-0.6-0.6-0.9-1c-0.3-0.6-0.5-1.2-0.5-1.9
				c0-0.4,0.1-0.9,0.2-1.3c0.2-0.4,0.4-0.8,0.7-1.1c0.3-0.3,0.6-0.6,1-0.8c0.6-0.3,1.2-0.5,1.9-0.5c0.5,0,1,0.1,1.4,0.3
				c0.5,0.2,0.9,0.5,1.2,0.8l-0.8,0.7c-0.2-0.3-0.5-0.5-0.9-0.6c-0.8-0.4-1.6-0.3-2.4,0.1c-0.4,0.2-0.8,0.6-1,1
				c-0.2,0.4-0.4,0.9-0.4,1.4c0,0.5,0.1,1,0.4,1.4c0.2,0.4,0.6,0.8,1,1c0.4,0.2,0.8,0.4,1.3,0.4c0.3,0,0.7-0.1,1-0.2
				c0.3-0.2,0.6-0.4,0.9-0.6l0.8,0.7c-0.4,0.4-0.8,0.6-1.2,0.8c-0.5,0.2-0.9,0.3-1.4,0.3C416.8,320.7,416.4,320.7,416,320.5z"/>
			<path class="st0" d="M426.1,319.2h-3.8l-0.6,1.5h-1.2l3.1-7.2h1.2l3.1,7.2h-1.2L426.1,319.2z M425.7,318.2l-1.5-3.4l-1.5,3.4
				H425.7z"/>
		</g>
	</g>
	<g>
		<path d="M558.3,257.5h56.1c2.2,0,4,1.8,4,4v4.3c0,2.2-1.8,4-4,4h-56.1c-2.2,0-4-1.8-4-4v-4.3C554.3,259.3,556.1,257.5,558.3,257.5
			z"/>
		<g>
			<path class="st0" d="M557.3,259.7h1.1v7.2h-1.1V259.7z"/>
			<path class="st0" d="M560.1,259.7h1.1l4.2,5.5v-5.5h1.1v7.2h-1.1l-4.2-5.5v5.5h-1.1V259.7z"/>
			<path class="st0" d="M568.2,259.7h2.5c0.7,0,1.4,0.1,2.1,0.5c1.7,0.9,2.4,3,1.6,4.7c-0.3,0.7-0.9,1.2-1.6,1.6
				c-0.6,0.3-1.4,0.5-2.1,0.5h-2.5L568.2,259.7z M570.8,266c0.5,0,1-0.1,1.5-0.3c0.4-0.2,0.8-0.5,1-1c0.5-0.9,0.5-1.9,0-2.7
				c-0.2-0.4-0.6-0.7-1-0.9c-0.5-0.2-1-0.3-1.5-0.3h-1.5v5.3L570.8,266z"/>
			<path class="st0" d="M578.3,266.8c-0.4-0.2-0.8-0.4-1.1-0.7c-0.3-0.3-0.6-0.6-0.8-1c-0.3-0.6-0.5-1.2-0.5-1.9
				c0-0.4,0.1-0.9,0.2-1.3c0.2-0.4,0.4-0.8,0.7-1.1c0.3-0.3,0.6-0.6,1-0.8c0.6-0.3,1.2-0.5,1.9-0.5c0.4,0,0.9,0.1,1.3,0.2
				c0.4,0.2,0.8,0.4,1.1,0.6c0.3,0.3,0.6,0.6,0.8,1c0.3,0.6,0.5,1.2,0.5,1.9c0,0.9-0.3,1.7-0.9,2.4c-0.3,0.3-0.6,0.6-1,0.8
				C580.5,267.1,579.4,267.2,578.3,266.8L578.3,266.8z M580.9,265.7c0.8-0.5,1.3-1.4,1.3-2.4c0-0.5-0.1-0.9-0.4-1.4
				c-0.2-0.4-0.6-0.8-1-1c-0.8-0.5-1.8-0.5-2.6,0c-0.4,0.2-0.8,0.6-1,1c-0.2,0.4-0.4,0.9-0.4,1.4c0,0.5,0.1,1,0.4,1.4
				c0.2,0.4,0.6,0.8,1,1C579.1,266.2,580.1,266.2,580.9,265.7L580.9,265.7z"/>
			<path class="st0" d="M584.8,259.7h1.1l4.2,5.5v-5.5h1.1v7.2H590l-4.2-5.5v5.5h-1.1L584.8,259.7z"/>
			<path class="st0" d="M593.9,260.7v2.1h3.8v1h-3.8v2.2h4.2v1h-5.3v-7.2h5.3v1L593.9,260.7z"/>
			<path class="st0" d="M599,265.9l0.6-0.8c0.6,0.6,1.5,1,2.4,1c0.3,0,0.6,0,0.8-0.1c0.2-0.1,0.4-0.2,0.5-0.4
				c0.1-0.2,0.2-0.4,0.2-0.6c0-0.3-0.2-0.6-0.4-0.7c-0.4-0.2-0.9-0.4-1.4-0.5c-0.5-0.1-0.9-0.2-1.4-0.4c-0.3-0.1-0.6-0.4-0.8-0.6
				c-0.2-0.3-0.3-0.6-0.3-1c0-0.4,0.1-0.8,0.3-1.1c0.2-0.3,0.5-0.6,0.9-0.8c0.4-0.2,0.8-0.3,1.3-0.3c0.5,0,1,0.1,1.4,0.2
				c0.4,0.2,0.9,0.4,1.2,0.8l-0.6,0.8c-0.3-0.3-0.6-0.5-1-0.6c-0.3-0.2-0.7-0.2-1.1-0.2c-0.2,0-0.5,0-0.7,0.1
				c-0.2,0.1-0.4,0.2-0.5,0.4c-0.1,0.2-0.2,0.3-0.2,0.5c0,0.2,0.1,0.4,0.2,0.5c0.2,0.2,0.4,0.3,0.6,0.4c0.3,0.1,0.7,0.2,1,0.3
				c0.5,0.1,0.9,0.3,1.4,0.5c0.3,0.2,0.6,0.4,0.8,0.7c0.2,0.3,0.3,0.6,0.3,1c0,0.4-0.1,0.8-0.3,1.1c-0.2,0.3-0.5,0.6-0.9,0.8
				c-0.4,0.2-0.9,0.3-1.4,0.3C600.9,267.1,599.8,266.7,599,265.9z"/>
			<path class="st0" d="M606,259.7h1v7.2h-1V259.7z"/>
			<path class="st0" d="M613.7,265.5h-3.8l-0.6,1.5h-1.2l3.1-7.2h1.2l3.1,7.2h-1.2L613.7,265.5z M613.3,264.5l-1.5-3.4l-1.5,3.4
				H613.3z"/>
		</g>
	</g>
	<g>
		<path d="M636.8,260.2h58.7c2.3,0,4.1,1.7,4.2,4v4.3c-0.1,2.3-1.9,4-4.2,4h-58.7c-2.3,0-4.1-1.7-4.2-4v-4.3
			C632.7,261.9,634.5,260.2,636.8,260.2z"/>
		<g>
			<path class="st0" d="M635.3,269l0.6-0.8c0.6,0.6,1.5,1,2.4,1c0.3,0,0.6,0,0.8-0.1c0.2-0.1,0.4-0.2,0.5-0.4
				c0.1-0.2,0.2-0.4,0.2-0.6c0-0.3-0.2-0.6-0.4-0.7c-0.4-0.2-0.9-0.4-1.4-0.5c-0.5-0.1-0.9-0.3-1.4-0.5c-0.3-0.1-0.6-0.4-0.8-0.6
				c-0.2-0.3-0.3-0.6-0.3-1c0-0.4,0.1-0.8,0.3-1.1c0.2-0.3,0.5-0.6,0.9-0.8c0.4-0.2,0.8-0.3,1.3-0.3c0.5,0,1,0.1,1.4,0.3
				c0.5,0.2,0.9,0.4,1.2,0.8l-0.6,0.8c-0.3-0.3-0.6-0.5-1-0.6c-0.3-0.1-0.7-0.2-1.1-0.2c-0.2,0-0.5,0-0.7,0.1
				c-0.2,0.1-0.4,0.2-0.5,0.4c-0.1,0.2-0.2,0.3-0.2,0.5c0,0.2,0.1,0.4,0.2,0.5c0.2,0.2,0.4,0.3,0.6,0.4c0.3,0.1,0.7,0.2,1,0.3
				c0.5,0.1,0.9,0.3,1.4,0.5c0.3,0.1,0.6,0.4,0.8,0.7c0.2,0.3,0.3,0.6,0.3,1c0,0.4-0.1,0.8-0.3,1.1c-0.2,0.3-0.5,0.6-0.9,0.8
				c-0.4,0.2-0.9,0.3-1.4,0.3C637.1,270.2,636.1,269.8,635.3,269z"/>
			<path class="st0" d="M642.2,262.8h1.1v7.2h-1.1V262.8z"/>
			<path class="st0" d="M645,262.8h1.1l4.2,5.5v-5.5h1.1v7.2h-1.1l-4.2-5.5v5.5H645V262.8z"/>
			<path class="st0" d="M656.3,266.1h3v2.9c-0.4,0.4-0.8,0.6-1.3,0.8c-0.5,0.2-1,0.3-1.6,0.3c-0.9,0-1.7-0.3-2.4-0.9
				c-0.3-0.3-0.6-0.6-0.8-1c-0.3-0.6-0.5-1.2-0.5-1.9c0-0.4,0.1-0.9,0.2-1.3c0.2-0.4,0.4-0.8,0.7-1.1c0.3-0.3,0.6-0.6,1-0.8
				c0.6-0.3,1.2-0.5,1.9-0.5c0.5,0,1.1,0.1,1.6,0.3c0.5,0.2,0.9,0.5,1.3,0.8l-0.8,0.7c-0.3-0.3-0.6-0.5-0.9-0.6
				c-0.4-0.2-0.8-0.2-1.2-0.2c-0.5,0-0.9,0.1-1.3,0.4c-0.4,0.2-0.8,0.6-1,1c-0.5,0.8-0.5,1.9,0,2.7c0.2,0.4,0.6,0.8,1,1
				c0.4,0.2,0.9,0.4,1.3,0.4c0.3,0,0.6-0.1,1-0.2c0.3-0.1,0.6-0.2,0.8-0.4V267h-1.9V266.1z"/>
			<path class="st0" d="M665.9,268.5h-3.8l-0.6,1.5h-1.2l3.1-7.2h1.2l3.1,7.2h-1.2L665.9,268.5z M665.5,267.5l-1.5-3.4l-1.5,3.4
				L665.5,267.5z"/>
			<path class="st0" d="M668.8,262.8h3c0.5,0,0.9,0.1,1.4,0.3c0.4,0.2,0.8,0.5,1,0.8c0.2,0.4,0.3,0.8,0.3,1.2c0,0.4-0.1,0.8-0.4,1.2
				c-0.2,0.4-0.6,0.7-1,0.9c-0.4,0.2-0.9,0.3-1.4,0.3h-2v2.5h-1.1L668.8,262.8z M671.7,266.5c0.3,0,0.6-0.1,0.9-0.2
				c0.2-0.1,0.5-0.3,0.6-0.5c0.2-0.2,0.2-0.5,0.2-0.7c0-0.3-0.1-0.5-0.2-0.7c-0.2-0.2-0.4-0.4-0.6-0.5c-0.3-0.1-0.6-0.2-0.9-0.2
				h-1.8v2.7L671.7,266.5z"/>
			<path class="st0" d="M677.8,269.9c-0.4-0.2-0.8-0.4-1.1-0.7c-0.3-0.3-0.6-0.6-0.8-1c-0.3-0.6-0.5-1.2-0.5-1.9
				c0-0.4,0.1-0.9,0.2-1.3c0.2-0.4,0.4-0.8,0.7-1.1c0.3-0.3,0.6-0.6,1-0.8c0.6-0.3,1.2-0.5,1.9-0.5c0.4,0,0.9,0.1,1.3,0.2
				c0.4,0.2,0.8,0.4,1.1,0.6c0.3,0.3,0.6,0.6,0.8,1c0.3,0.6,0.5,1.2,0.5,1.9c0,0.4-0.1,0.9-0.2,1.3c-0.2,0.4-0.4,0.8-0.7,1.1
				c-0.3,0.3-0.6,0.6-1,0.8c-0.6,0.3-1.2,0.5-1.9,0.5C678.6,270.1,678.2,270.1,677.8,269.9z M680.4,268.8c0.8-0.5,1.3-1.4,1.3-2.4
				c0-0.5-0.1-0.9-0.4-1.4c-0.2-0.4-0.6-0.8-1-1c-0.4-0.2-0.9-0.4-1.3-0.4c-0.5,0-0.9,0.1-1.3,0.4c-0.4,0.2-0.8,0.6-1,1
				c-0.2,0.4-0.4,0.9-0.4,1.4c0,0.5,0.1,1,0.4,1.4c0.2,0.4,0.6,0.8,1,1c0.4,0.2,0.8,0.4,1.3,0.4C679.5,269.2,680,269,680.4,268.8z"
				/>
			<path class="st0" d="M689.6,266.1c-0.2,0.3-0.4,0.6-0.7,0.8c-0.3,0.2-0.6,0.4-1,0.5l1.8,2.6h-1.2l-1.8-2.5h-1.7v2.5h-1.1v-7.2h3
				c0.5,0,0.9,0.1,1.4,0.3c0.4,0.2,0.8,0.5,1,0.8c0.2,0.4,0.3,0.8,0.3,1.2C689.8,265.5,689.8,265.8,689.6,266.1z M685.2,266.5h1.8
				c0.3,0,0.6-0.1,0.9-0.2c0.2-0.1,0.5-0.3,0.6-0.5c0.1-0.2,0.2-0.5,0.2-0.7c0-0.3-0.1-0.5-0.2-0.7c-0.1-0.2-0.3-0.3-0.5-0.4
				c-0.3-0.1-0.6-0.2-0.9-0.2h-1.8L685.2,266.5z"/>
			<path class="st0" d="M692.1,263.8v2.1h3.9v1h-3.8v2.2h4.2v1h-5.3v-7.2h5.3v1L692.1,263.8z"/>
		</g>
	</g>
	<g>
		<path d="M626.2,323.3h57.4c2.2,0,4,1.8,4,4v4.3c0,2.2-1.8,4-4,4h-57.4c-2.2,0-4-1.8-4-4v-4.3C622.2,325.1,624,323.3,626.2,323.3z"
			/>
		<g>
			<path class="st0" d="M630.7,331.5h-3.8l-0.6,1.5h-1.2l3.1-7.2h1.2l3.1,7.2h-1.2L630.7,331.5z M630.2,330.6l-1.5-3.4l-1.5,3.4
				H630.2z"/>
			<path class="st0" d="M635.1,332.7c-0.5-0.3-0.8-0.7-1.1-1.1c-0.3-0.5-0.4-1.1-0.4-1.6v-4.2h1.1v4.2c0,0.4,0.1,0.8,0.3,1.1
				c0.2,0.3,0.4,0.6,0.7,0.8c0.6,0.4,1.5,0.4,2.1,0c0.3-0.2,0.6-0.5,0.7-0.8c0.2-0.4,0.3-0.8,0.3-1.1v-4.2h1.1v4.2
				c0,0.6-0.1,1.1-0.4,1.6c-0.3,0.5-0.6,0.9-1.1,1.1c-0.5,0.3-1,0.4-1.6,0.4C636.1,333.2,635.6,333,635.1,332.7z"/>
			<path class="st0" d="M641,332l0.7-0.8c0.6,0.6,1.5,1,2.4,1c0.3,0,0.6,0,0.8-0.1c0.2-0.1,0.4-0.2,0.5-0.4c0.1-0.2,0.2-0.4,0.2-0.6
				c0-0.3-0.1-0.6-0.4-0.8c-0.4-0.2-0.9-0.4-1.4-0.5c-0.5-0.1-0.9-0.2-1.4-0.4c-0.3-0.1-0.6-0.4-0.8-0.6c-0.2-0.3-0.3-0.6-0.3-1
				c0-0.4,0.1-0.8,0.3-1.1c0.2-0.3,0.5-0.6,0.9-0.8c0.4-0.2,0.8-0.3,1.3-0.3c0.5,0,1,0.1,1.4,0.3c0.4,0.2,0.9,0.4,1.2,0.8l-0.6,0.8
				c-0.3-0.3-0.6-0.5-1-0.7c-0.3-0.1-0.7-0.2-1.1-0.2c-0.2,0-0.5,0-0.7,0.1c-0.2,0.1-0.4,0.2-0.5,0.4c-0.1,0.2-0.2,0.3-0.2,0.5
				c0,0.2,0.1,0.4,0.2,0.5c0.2,0.2,0.4,0.3,0.6,0.4c0.3,0.1,0.7,0.2,1,0.3c0.5,0.1,0.9,0.3,1.4,0.5c0.3,0.2,0.6,0.4,0.8,0.7
				c0.2,0.3,0.3,0.6,0.3,1c0,0.8-0.4,1.5-1.2,1.9c-0.5,0.2-0.9,0.3-1.4,0.3C642.9,333.2,641.8,332.8,641,332z"/>
			<path class="st0" d="M650,326.8h-2.4v-1h5.8v1H651v6.2h-1V326.8z"/>
			<path class="st0" d="M660.1,329.1c-0.2,0.3-0.4,0.6-0.7,0.8c-0.3,0.2-0.6,0.4-1,0.5l1.8,2.6h-1.2l-1.8-2.5h-1.7v2.5h-1.1v-7.2h3
				c0.5,0,0.9,0.1,1.4,0.3c0.4,0.2,0.8,0.5,1,0.8c0.2,0.4,0.4,0.8,0.3,1.2C660.3,328.5,660.3,328.8,660.1,329.1z M655.7,329.5h1.8
				c0.3,0,0.6,0,0.9-0.2c0.2-0.1,0.5-0.3,0.6-0.5c0.1-0.2,0.2-0.5,0.2-0.7c0-0.3-0.1-0.5-0.2-0.7c-0.2-0.2-0.4-0.4-0.6-0.5
				c-0.3-0.1-0.6-0.2-0.9-0.2h-1.8V329.5z"/>
			<path class="st0" d="M666.6,331.5h-3.8l-0.6,1.5H661l3.1-7.2h1.2l3.1,7.2h-1.2L666.6,331.5z M666.2,330.6l-1.5-3.4l-1.5,3.4
				H666.2z"/>
			<path class="st0" d="M674.3,332v1h-4.9v-7.2h1.1v6.2H674.3z"/>
			<path class="st0" d="M675.4,325.8h1.1v7.2h-1.1V325.8z"/>
			<path class="st0" d="M683.2,331.5h-3.8l-0.6,1.5h-1.2l3.1-7.2h1.2l3.1,7.2h-1.2L683.2,331.5z M682.7,330.6l-1.5-3.4l-1.5,3.4
				H682.7z"/>
		</g>
	</g>
	<g>
		<path d="M695.9,360.2h76.9c2.2,0,4,1.8,4,4v4.3c0,2.2-1.8,4-4,4h-76.9c-2.2,0-4-1.8-4-4v-4.3C691.9,362,693.7,360.2,695.9,360.2z"
			/>
		<g>
			<path class="st0" d="M695.1,362.7h1.1l4.2,5.5v-5.5h1.1v7.3h-1.1l-4.2-5.5v5.5h-1.1V362.7z"/>
			<path class="st0" d="M704.2,363.7v2.1h3.8v1h-3.8v2.2h4.2v1h-5.3v-7.2h5.3v1L704.2,363.7z"/>
			<path class="st0" d="M709.3,362.7h1.2l1.8,5.5l1.8-5.5h1.2l1.8,5.5l1.8-5.5h1.1l-2.3,7.3h-1.1l-1.9-5.8l-1.9,5.8h-1.1
				L709.3,362.7z"/>
			<path class="st0" d="M724,369.1l4.2-5.4H724v-1h5.6v0.8l-4.2,5.4h4.2v1H724V369.1z"/>
			<path class="st0" d="M732,363.7v2.1h3.8v1H732v2.2h4.2v1H731v-7.2h5.3v1L732,363.7z"/>
			<path class="st0" d="M742.7,368.5h-3.8l-0.6,1.5h-1.2l3.1-7.2h1.2l3.1,7.3h-1.2L742.7,368.5z M742.3,367.5l-1.5-3.4l-1.5,3.4
				H742.3z"/>
			<path class="st0" d="M750.4,369v1h-4.9v-7.2h1.1v6.2H750.4z"/>
			<path class="st0" d="M756.6,368.5h-3.8l-0.6,1.5H751l3.1-7.2h1.2l3.1,7.2h-1.2L756.6,368.5z M756.2,367.5l-1.5-3.4l-1.5,3.4
				H756.2z"/>
			<path class="st0" d="M759.5,362.7h1.1l4.2,5.5v-5.5h1.1v7.3h-1.1l-4.2-5.5v5.5h-1.1V362.7z"/>
			<path class="st0" d="M767.7,362.7h2.5c0.7,0,1.4,0.1,2.1,0.5c0.6,0.3,1.1,0.7,1.4,1.3c0.7,1.2,0.7,2.6,0,3.7
				c-0.3,0.6-0.8,1-1.4,1.3c-0.6,0.3-1.4,0.5-2.1,0.5h-2.5V362.7z M770.2,369c0.5,0,1-0.1,1.5-0.3c0.4-0.2,0.8-0.5,1-0.9
				c0.5-0.9,0.5-1.9,0-2.7c-0.2-0.4-0.6-0.7-1-0.9c-0.5-0.2-1-0.3-1.5-0.3h-1.5v5.3H770.2z"/>
		</g>
	</g>
	<g>
		<path d="M250.7,263.6h35.2c2.2,0,4,1.8,4,4v4.3c0,2.2-1.8,4-4,4h-35.2c-2.2,0-4-1.8-4-4v-4.3C246.7,265.4,248.5,263.6,250.7,263.6
			z"/>
		<g>
			<path class="st0" d="M249.9,265.9h3.4c0.4,0,0.7,0.1,1.1,0.2c0.3,0.1,0.6,0.4,0.7,0.6c0.2,0.3,0.3,0.6,0.3,0.9
				c0,0.3-0.1,0.6-0.2,0.9c-0.2,0.3-0.5,0.5-0.8,0.7c0.4,0.2,0.7,0.4,1,0.8c0.2,0.3,0.3,0.7,0.3,1.1c0,0.4-0.1,0.7-0.3,1
				c-0.2,0.3-0.5,0.6-0.8,0.7c-0.4,0.2-0.8,0.3-1.1,0.2h-3.6L249.9,265.9z M253.1,268.9c0.2,0,0.4,0,0.6-0.1
				c0.2-0.1,0.3-0.2,0.4-0.4c0.2-0.3,0.2-0.7,0-1.1c-0.1-0.2-0.3-0.3-0.4-0.4c-0.2-0.1-0.4-0.1-0.6-0.1H251v2.1L253.1,268.9z
				 M253.2,272.1c0.3,0,0.5,0,0.8-0.1c0.2-0.1,0.4-0.2,0.5-0.4c0.2-0.4,0.2-0.9,0-1.2c-0.1-0.2-0.3-0.3-0.5-0.4
				c-0.2-0.1-0.5-0.2-0.7-0.1H251v2.4L253.2,272.1z"/>
			<path class="st0" d="M262.5,269.2c-0.2,0.3-0.4,0.6-0.6,0.8c-0.3,0.2-0.6,0.4-1,0.5l1.8,2.6h-1.2l-1.8-2.5h-1.7v2.5H257v-7.2h3
				c0.5,0,0.9,0.1,1.4,0.3c0.4,0.2,0.8,0.5,1,0.8c0.2,0.4,0.4,0.8,0.4,1.2C262.7,268.6,262.7,268.9,262.5,269.2z M258.1,269.6h1.8
				c0.3,0,0.6,0,0.9-0.2c0.2-0.1,0.5-0.3,0.6-0.5c0.1-0.2,0.2-0.5,0.2-0.7c0-0.3-0.1-0.5-0.2-0.7c-0.2-0.2-0.4-0.4-0.6-0.5
				c-0.3-0.1-0.6-0.2-0.9-0.2h-1.8V269.6z"/>
			<path class="st0" d="M269,271.6h-3.8l-0.6,1.5h-1.2l3.1-7.2h1.2l3.1,7.2h-1.2L269,271.6z M268.6,270.6l-1.5-3.4l-1.5,3.4H268.6z"
				/>
			<path class="st0" d="M271.7,272.2l4.2-5.4h-4.1v-1h5.6v0.8l-4.2,5.4h4.2v1h-5.7L271.7,272.2z"/>
			<path class="st0" d="M278.7,265.9h1.1v7.2h-1.1V265.9z"/>
			<path class="st0" d="M286.2,272.1v1h-4.9v-7.2h1.1v6.2L286.2,272.1z"/>
		</g>
	</g>
	<g>
		<path d="M203.1,336.8h28c2.2,0,4,1.8,4,4v4.3c0,2.2-1.8,4-4,4h-28c-2.2,0-4-1.8-4-4v-4.3C199.1,338.6,200.9,336.8,203.1,336.8z"/>
		<g>
			<path class="st0" d="M204.4,346.1c-0.8-0.3-1.5-0.9-2-1.7c-0.3-0.6-0.5-1.2-0.5-1.9c0-0.4,0.1-0.9,0.2-1.3
				c0.2-0.4,0.4-0.8,0.7-1.1c0.3-0.3,0.6-0.6,1-0.8c0.6-0.3,1.2-0.5,1.9-0.5c0.5,0,1,0.1,1.4,0.3c0.5,0.2,0.9,0.5,1.2,0.8l-0.8,0.7
				c-0.2-0.3-0.5-0.5-0.9-0.6c-0.3-0.2-0.7-0.2-1-0.2c-0.5,0-0.9,0.1-1.3,0.4c-0.4,0.2-0.8,0.6-1,1c-0.2,0.4-0.4,0.9-0.4,1.4
				c0,0.5,0.1,1,0.4,1.4c0.2,0.4,0.6,0.8,1,1c0.4,0.2,0.8,0.4,1.3,0.4c0.3,0,0.7-0.1,1-0.2c0.3-0.2,0.6-0.4,0.9-0.6l0.8,0.7
				c-0.4,0.4-0.8,0.6-1.2,0.8c-0.5,0.2-0.9,0.3-1.4,0.3C205.2,346.3,204.8,346.2,204.4,346.1z"/>
			<path class="st0" d="M215.5,339v7.2h-1.1V343h-3.9v3.2h-1.1V339h1.1v3h3.9v-3H215.5z"/>
			<path class="st0" d="M217.1,339h1.1v7.2h-1.1V339z"/>
			<path class="st0" d="M224.5,345.2v1h-4.9V339h1.1v6.2L224.5,345.2z"/>
			<path class="st0" d="M226.7,340v2h3.8v1h-3.8v2.2h4.3v1h-5.3V339h5.3v1H226.7z"/>
		</g>
	</g>
	<g>
		<path d="M93.7,145h20c2.2,0,4,1.8,4,4v4.3c0,2.2-1.8,4-4,4h-20c-2.2,0-4-1.8-4-4V149C89.7,146.8,91.5,145,93.7,145z"/>
		<g>
			<path class="st0" d="M94.3,154.1c-0.5-0.3-0.8-0.6-1.1-1.1c-0.3-0.5-0.4-1.1-0.4-1.6v-4.2h1.1v4.2c0,0.4,0.1,0.8,0.2,1.1
				c0.2,0.3,0.4,0.6,0.7,0.8c0.6,0.4,1.5,0.4,2.1,0c0.3-0.2,0.6-0.5,0.7-0.8c0.2-0.4,0.3-0.7,0.2-1.1v-4.2h1v4.2
				c0,0.6-0.1,1.1-0.4,1.6c-0.3,0.5-0.6,0.9-1.1,1.1C96.5,154.7,95.3,154.7,94.3,154.1L94.3,154.1z"/>
			<path class="st0" d="M100.3,153.4l0.6-0.8c0.6,0.6,1.5,1,2.4,1c0.3,0,0.6,0,0.8-0.1c0.2-0.1,0.4-0.2,0.5-0.4
				c0.1-0.2,0.2-0.4,0.2-0.6c0-0.3-0.2-0.6-0.4-0.7c-0.4-0.2-0.9-0.4-1.4-0.5c-0.5-0.1-0.9-0.2-1.4-0.4c-0.3-0.1-0.6-0.4-0.8-0.6
				c-0.2-0.3-0.3-0.6-0.3-1c0-0.4,0.1-0.8,0.3-1.1c0.2-0.3,0.5-0.6,0.9-0.8c0.4-0.2,0.8-0.3,1.3-0.3c0.5,0,1,0.1,1.4,0.2
				c0.4,0.2,0.9,0.4,1.2,0.8l-0.6,0.8c-0.3-0.3-0.6-0.5-1-0.6c-0.3-0.1-0.7-0.2-1.1-0.2c-0.2,0-0.5,0-0.7,0.1
				c-0.2,0.1-0.4,0.2-0.5,0.4c-0.1,0.2-0.2,0.3-0.2,0.5c0,0.2,0.1,0.4,0.2,0.5c0.2,0.2,0.4,0.3,0.6,0.4c0.3,0.1,0.7,0.2,1,0.3
				c0.5,0.1,0.9,0.3,1.4,0.5c0.3,0.2,0.6,0.4,0.8,0.7c0.2,0.3,0.3,0.6,0.3,1c0,0.4-0.1,0.8-0.3,1.1c-0.2,0.3-0.5,0.6-0.9,0.8
				c-0.5,0.2-0.9,0.3-1.4,0.3C102.1,154.6,101.1,154.1,100.3,153.4z"/>
			<path class="st0" d="M112.3,152.9h-3.8l-0.6,1.5h-1.2l3.1-7.2h1.2l3.1,7.2h-1.2L112.3,152.9z M111.8,152l-1.5-3.4l-1.5,3.5
				L111.8,152z"/>
		</g>
	</g>
	<g>
		<path d="M369.3,90.8h11.4c2.2,0,4,1.8,4,4v4.3c0,2.2-1.8,4-4,4h-11.4c-2.2,0-4-1.8-4-4v-4.3C365.3,92.6,367.1,90.8,369.3,90.8z"/>
		<g>
			<path class="st0" d="M369.9,99.9c-0.5-0.3-0.9-0.7-1.1-1.1c-0.3-0.5-0.4-1.1-0.4-1.6V93h1.1v4.2c0,0.4,0.1,0.8,0.2,1.2
				c0.5,1,1.7,1.4,2.7,0.9c0.1,0,0.1-0.1,0.1-0.1c0.3-0.2,0.6-0.5,0.7-0.8c0.2-0.4,0.3-0.7,0.2-1.1V93h1.1v4.2
				c0,0.6-0.1,1.1-0.4,1.6c-0.3,0.5-0.6,0.9-1.1,1.1C372.1,100.5,370.9,100.5,369.9,99.9L369.9,99.9z"/>
			<path class="st0" d="M376.4,93h1.1v3.8l3.4-3.8h1.4l-3,3.2l3.2,4H381l-2.5-3.2l-1,1.1v2.1h-1.1V93z"/>
		</g>
	</g>
	<g>
		<path d="M411.6,133.9h49.7c2.2,0,4,1.8,4,4v4.3c0,2.2-1.8,4-4,4h-49.7c-2.2,0-4-1.8-4-4v-4.3C407.6,135.7,409.4,133.9,411.6,133.9
			z"/>
		<g>
			<path class="st0" d="M410.3,142.3l0.6-0.8c0.6,0.6,1.5,1,2.4,1c0.3,0,0.6,0,0.8-0.1c0.2-0.1,0.4-0.2,0.5-0.4
				c0.1-0.2,0.2-0.4,0.2-0.6c0-0.3-0.2-0.6-0.4-0.7c-0.4-0.2-0.9-0.4-1.4-0.5c-0.5-0.1-0.9-0.2-1.4-0.4c-0.3-0.1-0.6-0.4-0.8-0.6
				c-0.2-0.3-0.3-0.6-0.3-1c0-0.4,0.1-0.8,0.3-1.1c0.2-0.3,0.5-0.6,0.9-0.8c0.4-0.2,0.8-0.3,1.3-0.3c0.5,0,1,0.1,1.4,0.2
				c0.4,0.2,0.9,0.4,1.2,0.8l-0.6,0.8c-0.3-0.3-0.6-0.5-1-0.6c-0.3-0.2-0.7-0.2-1.1-0.2c-0.2,0-0.5,0-0.7,0.1
				c-0.2,0.1-0.4,0.2-0.5,0.4c-0.1,0.2-0.2,0.3-0.2,0.5c0,0.2,0.1,0.4,0.2,0.5c0.2,0.2,0.4,0.3,0.6,0.4c0.3,0.1,0.7,0.2,1,0.3
				c0.5,0.1,0.9,0.3,1.4,0.5c0.3,0.2,0.6,0.4,0.8,0.7c0.2,0.3,0.3,0.6,0.3,1c0,0.4-0.1,0.8-0.3,1.1c-0.2,0.3-0.5,0.6-0.9,0.8
				c-0.4,0.2-0.9,0.3-1.4,0.3C412.2,143.5,411.1,143,410.3,142.3z"/>
			<path class="st0" d="M422,142.3v1h-4.9v-7.2h1.1v6.2L422,142.3z"/>
			<path class="st0" d="M425.4,143.2c-0.8-0.3-1.5-0.9-2-1.7c-0.3-0.6-0.5-1.2-0.5-1.9c0-0.4,0.1-0.9,0.2-1.3
				c0.2-0.4,0.4-0.8,0.7-1.1c0.3-0.3,0.6-0.6,1-0.8c0.6-0.3,1.2-0.5,1.9-0.5c0.4,0,0.9,0.1,1.3,0.2c0.4,0.2,0.8,0.4,1.1,0.6
				c0.3,0.3,0.6,0.6,0.8,1c0.6,1,0.7,2.1,0.3,3.1c-0.1,0.4-0.4,0.8-0.6,1.1c-0.3,0.3-0.6,0.6-1,0.8c-0.6,0.3-1.2,0.5-1.9,0.5
				C426.2,143.5,425.8,143.4,425.4,143.2z M427.9,142.1c0.8-0.5,1.3-1.4,1.3-2.4c0-0.5-0.1-0.9-0.4-1.4c-0.2-0.4-0.6-0.8-1-1
				c-0.8-0.5-1.8-0.5-2.6,0c-0.4,0.2-0.8,0.6-1,1c-0.2,0.4-0.4,0.9-0.4,1.4c0,0.5,0.1,1,0.4,1.4c0.2,0.4,0.6,0.8,1,1
				C426.1,142.6,427.1,142.6,427.9,142.1L427.9,142.1z"/>
		</g>
		<g>
			<path class="st0" d="M438.6,136.1l-3.1,7.2h-1.2l-3.1-7.2h1.2l2.5,5.9l2.5-5.9H438.6z"/>
		</g>
		<g>
			<path class="st0" d="M443.8,141.8H440l-0.6,1.5h-1.2l3.1-7.2h1.2l3.1,7.2h-1.2L443.8,141.8z M443.3,140.8l-1.5-3.4l-1.5,3.4
				H443.3z"/>
			<path class="st0" d="M446.7,136.1h1.1v3.8l3.4-3.8h1.4l-3,3.2l3.2,4h-1.3l-2.6-3.2l-1,1.1v2.1h-1.1L446.7,136.1z"/>
			<path class="st0" d="M453.7,136.1h1.1v7.2h-1.1V136.1z"/>
			<path class="st0" d="M461.4,141.8h-3.8l-0.6,1.5h-1.2l3.1-7.2h1.2l3.1,7.2h-1.2L461.4,141.8z M461,140.8l-1.5-3.4l-1.5,3.4H461z"
				/>
		</g>
	</g>
	<g>
		<path d="M618,204.2h83.6c2.2,0,4,1.8,4,4v4.3c0,2.2-1.8,4-4,4H618c-2.2,0-4-1.8-4-4v-4.3C614,206,615.8,204.2,618,204.2z"/>
		<g>
			<path class="st0" d="M619.1,207.7h-2.4v-1h5.8v1h-2.4v6.3h-1.1V207.7z"/>
			<path class="st0" d="M629.8,206.7v7.3h-1.1v-3.2h-3.9v3.2h-1.1v-7.2h1.1v3.1h3.9v-3.1L629.8,206.7z"/>
			<path class="st0" d="M632.5,207.7v2.1h3.8v1h-3.8v2.2h4.2v1h-5.3v-7.2h5.3v1L632.5,207.7z"/>
			<path class="st0" d="M641,206.7h3c0.5,0,0.9,0.1,1.4,0.3c0.4,0.2,0.8,0.5,1,0.8c0.2,0.4,0.3,0.8,0.3,1.2c0,0.4-0.1,0.8-0.4,1.2
				c-0.2,0.4-0.6,0.7-1,0.9c-0.4,0.2-0.9,0.3-1.4,0.3h-2v2.6H641L641,206.7z M643.9,210.5c0.3,0,0.6-0.1,0.9-0.2
				c0.2-0.1,0.5-0.3,0.6-0.5c0.2-0.2,0.2-0.5,0.2-0.7c0-0.3-0.1-0.5-0.2-0.7c-0.2-0.2-0.4-0.4-0.6-0.5c-0.3-0.1-0.6-0.2-0.9-0.2
				h-1.8v2.7L643.9,210.5z"/>
			<path class="st0" d="M654,206.7v7.3h-1.1v-3.2h-4v3.2h-1.1v-7.2h1.1v3.1h4v-3.1L654,206.7z"/>
			<path class="st0" d="M655.5,206.7h1.1v7.3h-1.1V206.7z"/>
			<path class="st0" d="M663,213v1h-4.9v-7.2h1.1v6.2H663z"/>
			<path class="st0" d="M664.1,206.7h1.1v7.3h-1.1V206.7z"/>
			<path class="st0" d="M666.8,206.7h3c0.5,0,0.9,0.1,1.4,0.3c0.4,0.2,0.8,0.5,1,0.8c0.2,0.4,0.3,0.8,0.3,1.2c0,0.4-0.1,0.8-0.3,1.2
				c-0.2,0.4-0.6,0.7-1,0.9c-0.4,0.2-0.9,0.3-1.4,0.3h-2v2.6h-1.1L666.8,206.7z M669.7,210.5c0.3,0,0.6-0.1,0.9-0.2
				c0.2-0.1,0.5-0.3,0.6-0.5c0.1-0.2,0.2-0.5,0.2-0.7c0-0.3-0.1-0.5-0.2-0.7c-0.2-0.2-0.4-0.4-0.6-0.5c-0.3-0.1-0.6-0.2-0.9-0.2
				h-1.8v2.7L669.7,210.5z"/>
			<path class="st0" d="M673.6,206.7h3c0.5,0,0.9,0.1,1.4,0.3c0.8,0.4,1.3,1.2,1.3,2.1c0,0.4-0.1,0.8-0.3,1.2
				c-0.2,0.4-0.6,0.7-1,0.9c-0.4,0.2-0.9,0.3-1.4,0.3h-2v2.6h-1.1L673.6,206.7z M676.5,210.5c0.3,0,0.6-0.1,0.9-0.2
				c0.2-0.1,0.5-0.3,0.6-0.5c0.2-0.2,0.2-0.5,0.2-0.7c0-0.3-0.1-0.5-0.2-0.7c-0.2-0.2-0.4-0.4-0.6-0.5c-0.3-0.1-0.6-0.2-0.9-0.2
				h-1.8v2.7L676.5,210.5z"/>
			<path class="st0" d="M680.5,206.7h1.1v7.3h-1.1V206.7z"/>
			<path class="st0" d="M683.2,206.7h1.1l4.2,5.5v-5.5h1.1v7.3h-1.1l-4.2-5.5v5.5h-1.1V206.7z"/>
			<path class="st0" d="M692.3,207.7v2.1h3.8v1h-3.8v2.2h4.2v1h-5.3v-7.2h5.3v1L692.3,207.7z"/>
			<path class="st0" d="M697.5,212.9l0.7-0.8c0.6,0.6,1.5,1,2.4,1c0.3,0,0.5,0,0.8-0.1c0.2-0.1,0.4-0.2,0.5-0.4
				c0.1-0.2,0.2-0.4,0.1-0.6c0-0.3-0.1-0.6-0.4-0.7c-0.4-0.2-0.9-0.4-1.4-0.5c-0.5-0.1-0.9-0.3-1.4-0.4c-0.3-0.1-0.6-0.4-0.8-0.6
				c-0.2-0.3-0.3-0.6-0.3-1c0-0.4,0.1-0.8,0.3-1.1c0.2-0.3,0.5-0.6,0.9-0.8c0.4-0.2,0.8-0.3,1.3-0.3c0.5,0,1,0.1,1.4,0.3
				c0.4,0.2,0.9,0.4,1.2,0.8l-0.6,0.8c-0.3-0.3-0.6-0.5-1-0.6c-0.3-0.1-0.7-0.2-1.1-0.2c-0.2,0-0.5,0-0.7,0.1
				c-0.2,0.1-0.4,0.2-0.5,0.4c-0.1,0.2-0.2,0.3-0.2,0.5c0,0.2,0.1,0.4,0.2,0.5c0.2,0.2,0.4,0.3,0.6,0.4c0.3,0.1,0.7,0.2,1,0.3
				c0.5,0.1,0.9,0.3,1.4,0.5c0.3,0.1,0.6,0.4,0.8,0.7c0.2,0.3,0.3,0.6,0.3,1c0,0.4-0.1,0.8-0.3,1.1c-0.2,0.3-0.5,0.6-0.9,0.8
				c-0.4,0.2-0.9,0.3-1.4,0.3C699.3,214.1,698.3,213.7,697.5,212.9z"/>
		</g>
	</g>
	<g>
		<path d="M591.3,235.1H643c2.2,0,4,1.8,4,4v4.3c0,2.2-1.8,4-4,4h-51.7c-2.2,0-4-1.8-4-4v-4.3C587.3,236.9,589.1,235.1,591.3,235.1z
			"/>
		<g>
			<path class="st0" d="M590.3,237.5h1.1l2.5,4.7l2.5-4.7h1.1v7.2h-1.1v-5.1l-2.5,4.7l-2.5-4.7v5.1h-1.1V237.5z"/>
			<path class="st0" d="M604.2,243.3h-3.8l-0.6,1.5h-1.2l3.1-7.2h1.2l3.1,7.2h-1.2L604.2,243.3z M603.8,242.3l-1.5-3.4l-1.5,3.4
				H603.8z"/>
			<path class="st0" d="M611.9,243.8v1H607v-7.2h1.1v6.2L611.9,243.8z"/>
		</g>
		<g>
			<path class="st0" d="M618.1,243.3h-3.8l-0.6,1.5h-1.2l3.1-7.2h1.2l3.1,7.2h-1.2L618.1,243.3z M617.7,242.3l-1.5-3.4l-1.5,3.4
				H617.7z"/>
		</g>
		<g>
			<path class="st0" d="M622.8,241.9l-2.9-4.4h1.3l2.2,3.4l2.2-3.4h1.2l-2.9,4.4v2.8h-1.1V241.9z"/>
			<path class="st0" d="M627.4,243.7l0.7-0.8c0.6,0.6,1.5,1,2.4,1c0.3,0,0.6,0,0.8-0.1c0.2-0.1,0.4-0.2,0.5-0.4
				c0.1-0.2,0.2-0.4,0.2-0.6c0-0.3-0.1-0.6-0.4-0.7c-0.4-0.2-0.9-0.4-1.4-0.5c-0.5-0.1-0.9-0.2-1.4-0.4c-0.3-0.1-0.6-0.4-0.8-0.6
				c-0.2-0.3-0.3-0.6-0.3-1c0-0.4,0.1-0.8,0.3-1.1c0.2-0.3,0.5-0.6,0.9-0.8c0.4-0.2,0.8-0.3,1.3-0.3c0.5,0,1,0.1,1.4,0.2
				c0.4,0.2,0.9,0.4,1.2,0.8l-0.6,0.8c-0.3-0.3-0.6-0.5-1-0.6c-0.3-0.2-0.7-0.2-1.1-0.2c-0.2,0-0.5,0-0.7,0.1
				c-0.2,0.1-0.4,0.2-0.5,0.4c-0.1,0.2-0.2,0.3-0.2,0.5c0,0.2,0.1,0.4,0.2,0.5c0.2,0.2,0.4,0.3,0.6,0.4c0.3,0.1,0.7,0.2,1,0.3
				c0.5,0.1,0.9,0.3,1.4,0.5c0.3,0.2,0.6,0.4,0.8,0.7c0.2,0.3,0.3,0.6,0.3,1c0,0.8-0.4,1.6-1.2,1.9c-0.4,0.2-0.9,0.3-1.4,0.3
				C629.2,244.9,628.2,244.5,627.4,243.7z"/>
			<path class="st0" d="M634.3,237.5h1.1v7.2h-1.1V237.5z"/>
			<path class="st0" d="M642,243.3h-3.8l-0.6,1.5h-1.2l3.1-7.2h1.2l3.1,7.2h-1.2L642,243.3z M641.6,242.3l-1.5-3.4l-1.5,3.4H641.6z"
				/>
		</g>
	</g>
	<g>
		<path d="M526.7,238.7h53.1c2.2,0,4,1.8,4,4v4.3c0,2.2-1.8,4-4,4h-53.1c-2.2,0-4-1.8-4-4v-4.3C522.7,240.5,524.5,238.7,526.7,238.7
			z"/>
		<g>
			<path class="st0" d="M525.3,247.1l0.6-0.8c0.6,0.6,1.5,1,2.4,1c0.3,0,0.6,0,0.8-0.1c0.2-0.1,0.4-0.2,0.5-0.4
				c0.1-0.2,0.2-0.4,0.2-0.6c0-0.3-0.2-0.6-0.4-0.7c-0.4-0.2-0.9-0.4-1.4-0.5c-0.5-0.1-0.9-0.2-1.4-0.4c-0.3-0.1-0.6-0.4-0.8-0.6
				c-0.2-0.3-0.3-0.6-0.3-1c0-0.4,0.1-0.8,0.3-1.1c0.2-0.3,0.5-0.6,0.9-0.8c0.4-0.2,0.8-0.3,1.3-0.3c0.5,0,1,0.1,1.4,0.2
				c0.4,0.2,0.9,0.4,1.2,0.8l-0.6,0.8c-0.3-0.3-0.6-0.5-1-0.6c-0.3-0.2-0.7-0.2-1.1-0.2c-0.2,0-0.5,0-0.7,0.1
				c-0.2,0.1-0.4,0.2-0.5,0.4c-0.1,0.2-0.2,0.3-0.2,0.5c0,0.2,0.1,0.4,0.2,0.5c0.2,0.2,0.4,0.3,0.6,0.4c0.3,0.1,0.7,0.2,1,0.3
				c0.5,0.1,0.9,0.3,1.4,0.5c0.3,0.1,0.6,0.4,0.8,0.7c0.2,0.3,0.3,0.6,0.3,1c0,0.4-0.1,0.8-0.3,1.1c-0.2,0.3-0.5,0.6-0.9,0.8
				c-0.4,0.2-0.9,0.3-1.4,0.3C527.2,248.3,526.1,247.9,525.3,247.1z"/>
			<path class="st0" d="M537.8,244.3c-0.2,0.3-0.4,0.6-0.7,0.8c-0.3,0.2-0.6,0.4-1,0.5l1.8,2.6h-1.2l-1.7-2.5h-1.7v2.5h-1.1v-7.2h3
				c0.5,0,0.9,0.1,1.4,0.3c0.4,0.2,0.8,0.5,1,0.8c0.2,0.4,0.4,0.8,0.3,1.2C538,243.6,537.9,244,537.8,244.3z M533.3,244.6h1.8
				c0.3,0,0.6,0,0.9-0.2c0.2-0.1,0.5-0.3,0.6-0.5c0.1-0.2,0.2-0.5,0.2-0.7c0-0.3-0.1-0.5-0.2-0.7c-0.2-0.2-0.4-0.4-0.6-0.5
				c-0.3-0.1-0.6-0.2-0.9-0.2h-1.8V244.6z"/>
			<path class="st0" d="M539.2,240.9h1.1v7.2h-1.1V240.9z"/>
			<path class="st0" d="M549.7,247.1v1h-4.9v-7.2h1.1v6.2L549.7,247.1z"/>
			<path class="st0" d="M555.9,246.7h-3.8l-0.6,1.5h-1.2l3.1-7.2h1.2l3.1,7.2h-1.2L555.9,246.7z M555.5,245.7l-1.5-3.4l-1.5,3.4
				H555.5z"/>
			<path class="st0" d="M558.9,240.9h1.1l4.2,5.5v-5.5h1.1v7.2h-1.1l-4.2-5.5v5.5h-1.1V240.9z"/>
		</g>
		<g>
			<path class="st0" d="M567,240.9h1.1v3.8l3.4-3.8h1.4l-3,3.2l3.2,4h-1.3l-2.6-3.2l-1,1.1v2.1h-1V240.9z"/>
		</g>
		<g>
			<path class="st0" d="M579.3,246.7h-3.8l-0.6,1.5h-1.2l3.1-7.2h1.2l3.1,7.2h-1.2L579.3,246.7z M578.9,245.7l-1.5-3.4l-1.5,3.4
				H578.9z"/>
		</g>
	</g>
	<g>
		<path d="M475.2,148H516c2.2,0,4,1.8,4,4v4.3c0,2.2-1.8,4-4,4h-40.8c-2.2,0-4-1.8-4-4V152C471.2,149.8,473,148,475.2,148z"/>
		<g>
			<path class="st0" d="M477.1,151.3h-2.4v-1h5.8v1h-2.4v6.2h-1.1L477.1,151.3z"/>
			<path class="st0" d="M483.3,157.3c-0.5-0.3-0.8-0.7-1.1-1.1c-0.3-0.5-0.4-1.1-0.4-1.6v-4.2h1.1v4.2c0,0.4,0.1,0.8,0.3,1.1
				c0.2,0.3,0.4,0.6,0.7,0.8c0.3,0.2,0.7,0.3,1,0.3c0.4,0,0.7-0.1,1-0.3c0.3-0.2,0.6-0.5,0.7-0.8c0.2-0.4,0.3-0.8,0.2-1.1v-4.2h1.1
				v4.2c0,0.6-0.1,1.1-0.4,1.6c-0.3,0.5-0.6,0.9-1.1,1.1C485.5,157.9,484.3,157.9,483.3,157.3L483.3,157.3z"/>
			<path class="st0" d="M495.1,153.7c-0.2,0.3-0.4,0.6-0.7,0.8c-0.3,0.2-0.6,0.4-1,0.5l1.9,2.6h-1.2l-1.8-2.5h-1.7v2.5h-1.1v-7.2h3
				c0.5,0,0.9,0.1,1.4,0.3c0.4,0.2,0.8,0.5,1,0.8c0.2,0.4,0.4,0.8,0.4,1.2C495.4,153.1,495.3,153.4,495.1,153.7z M490.7,154.1h1.8
				c0.3,0,0.6,0,0.9-0.2c0.2-0.1,0.5-0.3,0.6-0.5c0.1-0.2,0.2-0.5,0.2-0.7c0-0.3-0.1-0.5-0.2-0.7c-0.2-0.2-0.4-0.4-0.6-0.5
				c-0.3-0.1-0.6-0.2-0.9-0.2h-1.8V154.1z"/>
			<path class="st0" d="M496.7,150.3h1.1v3.8l3.4-3.8h1.4l-3,3.3l3.2,4h-1.3l-2.6-3.2l-1,1.1v2.1h-1.1L496.7,150.3z"/>
			<path class="st0" d="M504.7,151.3v2.1h3.8v1h-3.8v2.2h4.2v1h-5.3v-7.2h5.3v1L504.7,151.3z"/>
			<path class="st0" d="M512.6,154.8l-2.9-4.4h1.3l2.2,3.4l2.2-3.4h1.2l-2.9,4.4v2.8h-1.1V154.8z"/>
		</g>
	</g>
	<g>
		<path d="M461.9,196.3h19.8c2.2,0,4,1.8,4,4v4.3c0,2.2-1.8,4-4,4h-19.8c-2.2,0-4-1.8-4-4v-4.3C457.9,198.1,459.7,196.3,461.9,196.3
			z"/>
		<g>
			<path class="st0" d="M462.5,205.5c-0.5-0.3-0.9-0.7-1.1-1.1c-0.3-0.5-0.4-1.1-0.4-1.6v-4.2h1.1v4.2c0,0.4,0.1,0.8,0.2,1.1
				c0.5,1,1.7,1.4,2.7,0.9c0.1,0,0.1-0.1,0.1-0.1c0.3-0.2,0.6-0.5,0.7-0.8c0.2-0.4,0.3-0.7,0.2-1.1v-4.2h1.1v4.2
				c0,0.6-0.1,1.1-0.4,1.6c-0.3,0.5-0.6,0.9-1.1,1.1C464.8,206,463.5,206,462.5,205.5L462.5,205.5z"/>
			<path class="st0" d="M473.9,204.3h-3.8l-0.6,1.5h-1.2l3.1-7.2h1.2l3.1,7.2h-1.2L473.9,204.3z M473.5,203.3l-1.5-3.4l-1.5,3.4
				H473.5z"/>
			<path class="st0" d="M477.9,199.5v2.1h3.8v1h-3.8v2.2h4.2v1h-5.3v-7.2h5.3v1L477.9,199.5z"/>
		</g>
	</g>
</g>
</svg>
