<?xml version="1.0" encoding="utf-8"?>
<!-- Generator: Adobe Illustrator 23.0.4, SVG Export Plug-In . SVG Version: 6.00 Build 0)  -->
<svg version="1.1" id="Layer_1" xmlns="http://www.w3.org/2000/svg" xmlns:xlink="http://www.w3.org/1999/xlink" x="0px" y="0px"
	 viewBox="0 0 810.9 404" style="enable-background:new 0 0 810.9 404;" xml:space="preserve">
<style type="text/css">
	.st0{fill:#FFFFFF;}
</style>
<title>Map-sa</title>
<g>
	<path d="M459.4,164h49.9c2.2,0,4,1.8,4,4v4.3c0,2.2-1.8,4-4,4h-49.9c-2.2,0-4-1.8-4-4V168C455.4,165.8,457.2,164,459.4,164z"/>
	<g>
		<path class="st0" d="M463.8,172.6v1h-4.9v-7.2h1.1v6.2H463.8z"/>
		<path class="st0" d="M466,167.4v2.1h3.8v1H466v2.2h4.2v1h-5.3v-7.2h5.3v1L466,167.4z"/>
		<path class="st0" d="M471.7,166.4h3.4c0.4,0,0.7,0.1,1.1,0.2c0.3,0.1,0.6,0.4,0.7,0.6c0.3,0.6,0.3,1.3,0,1.9
			c-0.2,0.3-0.5,0.5-0.8,0.7c0.4,0.2,0.7,0.4,1,0.8c0.2,0.3,0.3,0.7,0.3,1.1c0,0.4-0.1,0.7-0.3,1c-0.2,0.3-0.5,0.5-0.8,0.7
			c-0.4,0.2-0.8,0.3-1.1,0.3h-3.6V166.4z M474.9,169.4c0.2,0,0.4,0,0.6-0.1c0.2-0.1,0.3-0.2,0.4-0.4c0.2-0.3,0.2-0.7,0-1.1
			c-0.1-0.2-0.3-0.3-0.4-0.4c-0.2-0.1-0.4-0.1-0.6-0.1h-2.1v2.1H474.9z M475,172.7c0.2,0,0.5,0,0.7-0.1c0.2-0.1,0.4-0.2,0.5-0.4
			c0.2-0.4,0.2-0.9,0-1.2c-0.1-0.2-0.3-0.3-0.5-0.4c-0.2-0.1-0.5-0.2-0.7-0.1h-2.3v2.4L475,172.7z"/>
		<path class="st0" d="M483.9,172.1h-3.8l-0.6,1.5h-1.2l3.1-7.2h1.2l3.1,7.2h-1.2L483.9,172.1z M483.5,171.1l-1.5-3.4l-1.5,3.4
			L483.5,171.1z"/>
		<path class="st0" d="M486.9,166.4h1.1l4.2,5.5v-5.5h1.1v7.2h-1.1l-4.2-5.5v5.5h-1.1V166.4z"/>
		<path class="st0" d="M497.1,173.5c-0.8-0.3-1.5-0.9-2-1.6c-0.3-0.6-0.5-1.2-0.5-1.9c0-0.4,0.1-0.9,0.2-1.3
			c0.2-0.4,0.4-0.8,0.7-1.1c0.3-0.3,0.6-0.6,1-0.9c1-0.6,2.1-0.7,3.1-0.3c0.4,0.2,0.8,0.4,1.1,0.7c0.3,0.3,0.6,0.6,0.9,1
			c0.3,0.6,0.5,1.2,0.5,1.9c0,0.4-0.1,0.9-0.2,1.3c-0.2,0.4-0.4,0.8-0.6,1.1c-0.3,0.3-0.6,0.6-1,0.8c-0.6,0.3-1.2,0.5-1.9,0.5
			C497.9,173.7,497.5,173.7,497.1,173.5z M499.7,172.4c0.4-0.2,0.8-0.6,1-1c0.2-0.4,0.4-0.9,0.3-1.4c0-0.5-0.1-0.9-0.4-1.4
			c-0.2-0.4-0.6-0.8-1-1c-0.4-0.3-0.8-0.4-1.3-0.4c-0.5,0-0.9,0.1-1.3,0.4c-0.4,0.2-0.8,0.6-1,1c-0.2,0.4-0.4,0.9-0.4,1.4
			c0,0.5,0.1,1,0.4,1.4c0.2,0.4,0.6,0.8,1,1c0.4,0.3,0.9,0.4,1.3,0.4C498.8,172.8,499.3,172.6,499.7,172.4z"/>
		<path class="st0" d="M503.5,166.4h1.1l4.2,5.5v-5.5h1.1v7.2h-1.1l-4.2-5.5v5.5h-1.1V166.4z"/>
	</g>
</g>
<g>
	<path d="M450.4,144h40.8c2.2,0,4,1.8,4,4v4.3c0,2.2-1.8,4-4,4h-40.8c-2.2,0-4-1.8-4-4V148C446.4,145.8,448.2,144,450.4,144z"/>
	<g>
		<path class="st0" d="M452.3,147.4h-2.4v-1h5.8v1h-2.4v6.2h-1.1L452.3,147.4z"/>
		<path class="st0" d="M458.5,153.3c-0.5-0.3-0.8-0.7-1.1-1.1c-0.3-0.5-0.4-1.1-0.4-1.6v-4.2h1.1v4.2c0,0.4,0.1,0.8,0.3,1.1
			c0.2,0.3,0.4,0.6,0.7,0.8c0.3,0.2,0.7,0.3,1,0.3c0.4,0,0.7-0.1,1-0.3c0.3-0.2,0.6-0.5,0.7-0.8c0.2-0.4,0.3-0.8,0.2-1.1v-4.2h1.1
			v4.2c0,0.6-0.1,1.1-0.4,1.6c-0.3,0.5-0.6,0.9-1.1,1.1C460.6,153.9,459.4,153.9,458.5,153.3L458.5,153.3z"/>
		<path class="st0" d="M470.3,149.7c-0.2,0.3-0.4,0.6-0.7,0.8c-0.3,0.2-0.6,0.4-1,0.5l1.9,2.6h-1.2l-1.8-2.5h-1.7v2.5h-1.1v-7.2h3
			c0.5,0,0.9,0.1,1.4,0.3c0.4,0.2,0.8,0.5,1,0.8c0.2,0.4,0.4,0.8,0.4,1.2C470.5,149.1,470.5,149.4,470.3,149.7z M465.9,150.1h1.8
			c0.3,0,0.6,0,0.9-0.2c0.2-0.1,0.5-0.3,0.6-0.5c0.1-0.2,0.2-0.5,0.2-0.7c0-0.3-0.1-0.5-0.2-0.7c-0.2-0.2-0.4-0.4-0.6-0.5
			c-0.3-0.1-0.6-0.2-0.9-0.2h-1.8V150.1z"/>
		<path class="st0" d="M471.9,146.4h1.1v3.8l3.4-3.8h1.4l-3,3.3l3.2,4h-1.3l-2.6-3.2l-1,1.1v2.1h-1.1L471.9,146.4z"/>
		<path class="st0" d="M479.9,147.4v2.1h3.8v1h-3.8v2.2h4.2v1h-5.3v-7.2h5.3v1L479.9,147.4z"/>
		<path class="st0" d="M487.7,150.8l-2.9-4.4h1.3l2.2,3.4l2.2-3.4h1.2l-2.9,4.4v2.8h-1.1V150.8z"/>
	</g>
</g>
<g>
	<path d="M618,204.2h83.6c2.2,0,4,1.8,4,4v4.3c0,2.2-1.8,4-4,4H618c-2.2,0-4-1.8-4-4v-4.3C614,206,615.8,204.2,618,204.2z"/>
	<g>
		<path class="st0" d="M619.1,207.7h-2.4v-1h5.8v1h-2.4v6.3h-1.1V207.7z"/>
		<path class="st0" d="M629.8,206.7v7.3h-1.1v-3.2h-3.9v3.2h-1.1v-7.2h1.1v3.1h3.9v-3.1L629.8,206.7z"/>
		<path class="st0" d="M632.5,207.7v2.1h3.8v1h-3.8v2.2h4.2v1h-5.3v-7.2h5.3v1L632.5,207.7z"/>
		<path class="st0" d="M641,206.7h3c0.5,0,0.9,0.1,1.4,0.3c0.4,0.2,0.8,0.5,1,0.8c0.2,0.4,0.3,0.8,0.3,1.2c0,0.4-0.1,0.8-0.4,1.2
			c-0.2,0.4-0.6,0.7-1,0.9c-0.4,0.2-0.9,0.3-1.4,0.3h-2v2.6H641L641,206.7z M643.9,210.5c0.3,0,0.6-0.1,0.9-0.2
			c0.2-0.1,0.5-0.3,0.6-0.5c0.2-0.2,0.2-0.5,0.2-0.7c0-0.3-0.1-0.5-0.2-0.7c-0.2-0.2-0.4-0.4-0.6-0.5c-0.3-0.1-0.6-0.2-0.9-0.2h-1.8
			v2.7L643.9,210.5z"/>
		<path class="st0" d="M654,206.7v7.3h-1.1v-3.2h-4v3.2h-1.1v-7.2h1.1v3.1h4v-3.1L654,206.7z"/>
		<path class="st0" d="M655.5,206.7h1.1v7.3h-1.1V206.7z"/>
		<path class="st0" d="M663,213v1h-4.9v-7.2h1.1v6.2H663z"/>
		<path class="st0" d="M664.1,206.7h1.1v7.3h-1.1V206.7z"/>
		<path class="st0" d="M666.8,206.7h3c0.5,0,0.9,0.1,1.4,0.3c0.4,0.2,0.8,0.5,1,0.8c0.2,0.4,0.3,0.8,0.3,1.2c0,0.4-0.1,0.8-0.3,1.2
			c-0.2,0.4-0.6,0.7-1,0.9c-0.4,0.2-0.9,0.3-1.4,0.3h-2v2.6h-1.1L666.8,206.7z M669.7,210.5c0.3,0,0.6-0.1,0.9-0.2
			c0.2-0.1,0.5-0.3,0.6-0.5c0.1-0.2,0.2-0.5,0.2-0.7c0-0.3-0.1-0.5-0.2-0.7c-0.2-0.2-0.4-0.4-0.6-0.5c-0.3-0.1-0.6-0.2-0.9-0.2h-1.8
			v2.7L669.7,210.5z"/>
		<path class="st0" d="M673.6,206.7h3c0.5,0,0.9,0.1,1.4,0.3c0.8,0.4,1.3,1.2,1.3,2.1c0,0.4-0.1,0.8-0.3,1.2c-0.2,0.4-0.6,0.7-1,0.9
			c-0.4,0.2-0.9,0.3-1.4,0.3h-2v2.6h-1.1L673.6,206.7z M676.5,210.5c0.3,0,0.6-0.1,0.9-0.2c0.2-0.1,0.5-0.3,0.6-0.5
			c0.2-0.2,0.2-0.5,0.2-0.7c0-0.3-0.1-0.5-0.2-0.7c-0.2-0.2-0.4-0.4-0.6-0.5c-0.3-0.1-0.6-0.2-0.9-0.2h-1.8v2.7L676.5,210.5z"/>
		<path class="st0" d="M680.5,206.7h1.1v7.3h-1.1V206.7z"/>
		<path class="st0" d="M683.2,206.7h1.1l4.2,5.5v-5.5h1.1v7.3h-1.1l-4.2-5.5v5.5h-1.1V206.7z"/>
		<path class="st0" d="M692.3,207.7v2.1h3.8v1h-3.8v2.2h4.2v1h-5.3v-7.2h5.3v1L692.3,207.7z"/>
		<path class="st0" d="M697.5,212.9l0.7-0.8c0.6,0.6,1.5,1,2.4,1c0.3,0,0.5,0,0.8-0.1c0.2-0.1,0.4-0.2,0.5-0.4
			c0.1-0.2,0.2-0.4,0.1-0.6c0-0.3-0.1-0.6-0.4-0.7c-0.4-0.2-0.9-0.4-1.4-0.5c-0.5-0.1-0.9-0.3-1.4-0.4c-0.3-0.1-0.6-0.4-0.8-0.6
			c-0.2-0.3-0.3-0.6-0.3-1c0-0.4,0.1-0.8,0.3-1.1c0.2-0.3,0.5-0.6,0.9-0.8c0.4-0.2,0.8-0.3,1.3-0.3c0.5,0,1,0.1,1.4,0.3
			c0.4,0.2,0.9,0.4,1.2,0.8l-0.6,0.8c-0.3-0.3-0.6-0.5-1-0.6c-0.3-0.1-0.7-0.2-1.1-0.2c-0.2,0-0.5,0-0.7,0.1
			c-0.2,0.1-0.4,0.2-0.5,0.4c-0.1,0.2-0.2,0.3-0.2,0.5c0,0.2,0.1,0.4,0.2,0.5c0.2,0.2,0.4,0.3,0.6,0.4c0.3,0.1,0.7,0.2,1,0.3
			c0.5,0.1,0.9,0.3,1.4,0.5c0.3,0.1,0.6,0.4,0.8,0.7c0.2,0.3,0.3,0.6,0.3,1c0,0.4-0.1,0.8-0.3,1.1c-0.2,0.3-0.5,0.6-0.9,0.8
			c-0.4,0.2-0.9,0.3-1.4,0.3C699.3,214.1,698.3,213.7,697.5,212.9z"/>
	</g>
</g>
<g>
	<path d="M558.3,257.5h56.1c2.2,0,4,1.8,4,4v4.3c0,2.2-1.8,4-4,4h-56.1c-2.2,0-4-1.8-4-4v-4.3C554.3,259.3,556.1,257.5,558.3,257.5z
		"/>
	<g>
		<path class="st0" d="M557.3,259.7h1.1v7.2h-1.1V259.7z"/>
		<path class="st0" d="M560.1,259.7h1.1l4.2,5.5v-5.5h1.1v7.2h-1.1l-4.2-5.5v5.5h-1.1V259.7z"/>
		<path class="st0" d="M568.2,259.7h2.5c0.7,0,1.4,0.1,2.1,0.5c1.7,0.9,2.4,3,1.6,4.7c-0.3,0.7-0.9,1.2-1.6,1.6
			c-0.6,0.3-1.4,0.5-2.1,0.5h-2.5L568.2,259.7z M570.8,266c0.5,0,1-0.1,1.5-0.3c0.4-0.2,0.8-0.5,1-1c0.5-0.9,0.5-1.9,0-2.7
			c-0.2-0.4-0.6-0.7-1-0.9c-0.5-0.2-1-0.3-1.5-0.3h-1.5v5.3L570.8,266z"/>
		<path class="st0" d="M578.3,266.8c-0.4-0.2-0.8-0.4-1.1-0.7c-0.3-0.3-0.6-0.6-0.8-1c-0.3-0.6-0.5-1.2-0.5-1.9
			c0-0.4,0.1-0.9,0.2-1.3c0.2-0.4,0.4-0.8,0.7-1.1c0.3-0.3,0.6-0.6,1-0.8c0.6-0.3,1.2-0.5,1.9-0.5c0.4,0,0.9,0.1,1.3,0.2
			c0.4,0.2,0.8,0.4,1.1,0.6c0.3,0.3,0.6,0.6,0.8,1c0.3,0.6,0.5,1.2,0.5,1.9c0,0.9-0.3,1.7-0.9,2.4c-0.3,0.3-0.6,0.6-1,0.8
			C580.5,267.1,579.4,267.2,578.3,266.8L578.3,266.8z M580.9,265.7c0.8-0.5,1.3-1.4,1.3-2.4c0-0.5-0.1-0.9-0.4-1.4
			c-0.2-0.4-0.6-0.8-1-1c-0.8-0.5-1.8-0.5-2.6,0c-0.4,0.2-0.8,0.6-1,1c-0.2,0.4-0.4,0.9-0.4,1.4c0,0.5,0.1,1,0.4,1.4
			c0.2,0.4,0.6,0.8,1,1C579.1,266.2,580.1,266.2,580.9,265.7L580.9,265.7z"/>
		<path class="st0" d="M584.8,259.7h1.1l4.2,5.5v-5.5h1.1v7.2H590l-4.2-5.5v5.5h-1.1L584.8,259.7z"/>
		<path class="st0" d="M593.9,260.7v2.1h3.8v1h-3.8v2.2h4.2v1h-5.3v-7.2h5.3v1L593.9,260.7z"/>
		<path class="st0" d="M599,265.9l0.6-0.8c0.6,0.6,1.5,1,2.4,1c0.3,0,0.6,0,0.8-0.1c0.2-0.1,0.4-0.2,0.5-0.4
			c0.1-0.2,0.2-0.4,0.2-0.6c0-0.3-0.2-0.6-0.4-0.7c-0.4-0.2-0.9-0.4-1.4-0.5c-0.5-0.1-0.9-0.2-1.4-0.4c-0.3-0.1-0.6-0.4-0.8-0.6
			c-0.2-0.3-0.3-0.6-0.3-1c0-0.4,0.1-0.8,0.3-1.1c0.2-0.3,0.5-0.6,0.9-0.8c0.4-0.2,0.8-0.3,1.3-0.3c0.5,0,1,0.1,1.4,0.2
			c0.4,0.2,0.9,0.4,1.2,0.8l-0.6,0.8c-0.3-0.3-0.6-0.5-1-0.6c-0.3-0.2-0.7-0.2-1.1-0.2c-0.2,0-0.5,0-0.7,0.1
			c-0.2,0.1-0.4,0.2-0.5,0.4c-0.1,0.2-0.2,0.3-0.2,0.5c0,0.2,0.1,0.4,0.2,0.5c0.2,0.2,0.4,0.3,0.6,0.4c0.3,0.1,0.7,0.2,1,0.3
			c0.5,0.1,0.9,0.3,1.4,0.5c0.3,0.2,0.6,0.4,0.8,0.7c0.2,0.3,0.3,0.6,0.3,1c0,0.4-0.1,0.8-0.3,1.1c-0.2,0.3-0.5,0.6-0.9,0.8
			c-0.4,0.2-0.9,0.3-1.4,0.3C600.9,267.1,599.8,266.7,599,265.9z"/>
		<path class="st0" d="M606,259.7h1v7.2h-1V259.7z"/>
		<path class="st0" d="M613.7,265.5h-3.8l-0.6,1.5h-1.2l3.1-7.2h1.2l3.1,7.2h-1.2L613.7,265.5z M613.3,264.5l-1.5-3.4l-1.5,3.4
			H613.3z"/>
	</g>
</g>
<g>
	<path d="M626.2,323.3h57.4c2.2,0,4,1.8,4,4v4.3c0,2.2-1.8,4-4,4h-57.4c-2.2,0-4-1.8-4-4v-4.3C622.2,325.1,624,323.3,626.2,323.3z"
		/>
	<g>
		<path class="st0" d="M630.7,331.5h-3.8l-0.6,1.5h-1.2l3.1-7.2h1.2l3.1,7.2h-1.2L630.7,331.5z M630.2,330.6l-1.5-3.4l-1.5,3.4
			H630.2z"/>
		<path class="st0" d="M635.1,332.7c-0.5-0.3-0.8-0.7-1.1-1.1c-0.3-0.5-0.4-1.1-0.4-1.6v-4.2h1.1v4.2c0,0.4,0.1,0.8,0.3,1.1
			c0.2,0.3,0.4,0.6,0.7,0.8c0.6,0.4,1.5,0.4,2.1,0c0.3-0.2,0.6-0.5,0.7-0.8c0.2-0.4,0.3-0.8,0.3-1.1v-4.2h1.1v4.2
			c0,0.6-0.1,1.1-0.4,1.6c-0.3,0.5-0.6,0.9-1.1,1.1c-0.5,0.3-1,0.4-1.6,0.4C636.1,333.2,635.6,333,635.1,332.7z"/>
		<path class="st0" d="M641,332l0.7-0.8c0.6,0.6,1.5,1,2.4,1c0.3,0,0.6,0,0.8-0.1c0.2-0.1,0.4-0.2,0.5-0.4c0.1-0.2,0.2-0.4,0.2-0.6
			c0-0.3-0.1-0.6-0.4-0.8c-0.4-0.2-0.9-0.4-1.4-0.5c-0.5-0.1-0.9-0.2-1.4-0.4c-0.3-0.1-0.6-0.4-0.8-0.6c-0.2-0.3-0.3-0.6-0.3-1
			c0-0.4,0.1-0.8,0.3-1.1c0.2-0.3,0.5-0.6,0.9-0.8c0.4-0.2,0.8-0.3,1.3-0.3c0.5,0,1,0.1,1.4,0.3c0.4,0.2,0.9,0.4,1.2,0.8l-0.6,0.8
			c-0.3-0.3-0.6-0.5-1-0.7c-0.3-0.1-0.7-0.2-1.1-0.2c-0.2,0-0.5,0-0.7,0.1c-0.2,0.1-0.4,0.2-0.5,0.4c-0.1,0.2-0.2,0.3-0.2,0.5
			c0,0.2,0.1,0.4,0.2,0.5c0.2,0.2,0.4,0.3,0.6,0.4c0.3,0.1,0.7,0.2,1,0.3c0.5,0.1,0.9,0.3,1.4,0.5c0.3,0.2,0.6,0.4,0.8,0.7
			c0.2,0.3,0.3,0.6,0.3,1c0,0.8-0.4,1.5-1.2,1.9c-0.5,0.2-0.9,0.3-1.4,0.3C642.9,333.2,641.8,332.8,641,332z"/>
		<path class="st0" d="M650,326.8h-2.4v-1h5.8v1H651v6.2h-1V326.8z"/>
		<path class="st0" d="M660.1,329.1c-0.2,0.3-0.4,0.6-0.7,0.8c-0.3,0.2-0.6,0.4-1,0.5l1.8,2.6h-1.2l-1.8-2.5h-1.7v2.5h-1.1v-7.2h3
			c0.5,0,0.9,0.1,1.4,0.3c0.4,0.2,0.8,0.5,1,0.8c0.2,0.4,0.4,0.8,0.3,1.2C660.3,328.5,660.3,328.8,660.1,329.1z M655.7,329.5h1.8
			c0.3,0,0.6,0,0.9-0.2c0.2-0.1,0.5-0.3,0.6-0.5c0.1-0.2,0.2-0.5,0.2-0.7c0-0.3-0.1-0.5-0.2-0.7c-0.2-0.2-0.4-0.4-0.6-0.5
			c-0.3-0.1-0.6-0.2-0.9-0.2h-1.8V329.5z"/>
		<path class="st0" d="M666.6,331.5h-3.8l-0.6,1.5H661l3.1-7.2h1.2l3.1,7.2h-1.2L666.6,331.5z M666.2,330.6l-1.5-3.4l-1.5,3.4H666.2
			z"/>
		<path class="st0" d="M674.3,332v1h-4.9v-7.2h1.1v6.2H674.3z"/>
		<path class="st0" d="M675.4,325.8h1.1v7.2h-1.1V325.8z"/>
		<path class="st0" d="M683.2,331.5h-3.8l-0.6,1.5h-1.2l3.1-7.2h1.2l3.1,7.2h-1.2L683.2,331.5z M682.7,330.6l-1.5-3.4l-1.5,3.4
			H682.7z"/>
	</g>
</g>
<g>
	<path d="M695.9,360.2h76.9c2.2,0,4,1.8,4,4v4.3c0,2.2-1.8,4-4,4h-76.9c-2.2,0-4-1.8-4-4v-4.3C691.9,362,693.7,360.2,695.9,360.2z"
		/>
	<g>
		<path class="st0" d="M695.1,362.7h1.1l4.2,5.5v-5.5h1.1v7.3h-1.1l-4.2-5.5v5.5h-1.1V362.7z"/>
		<path class="st0" d="M704.2,363.7v2.1h3.8v1h-3.8v2.2h4.2v1h-5.3v-7.2h5.3v1L704.2,363.7z"/>
		<path class="st0" d="M709.3,362.7h1.2l1.8,5.5l1.8-5.5h1.2l1.8,5.5l1.8-5.5h1.1l-2.3,7.3h-1.1l-1.9-5.8l-1.9,5.8h-1.1L709.3,362.7
			z"/>
		<path class="st0" d="M724,369.1l4.2-5.4H724v-1h5.6v0.8l-4.2,5.4h4.2v1H724V369.1z"/>
		<path class="st0" d="M732,363.7v2.1h3.8v1H732v2.2h4.2v1H731v-7.2h5.3v1L732,363.7z"/>
		<path class="st0" d="M742.7,368.5h-3.8l-0.6,1.5h-1.2l3.1-7.2h1.2l3.1,7.3h-1.2L742.7,368.5z M742.3,367.5l-1.5-3.4l-1.5,3.4
			H742.3z"/>
		<path class="st0" d="M750.4,369v1h-4.9v-7.2h1.1v6.2H750.4z"/>
		<path class="st0" d="M756.6,368.5h-3.8l-0.6,1.5H751l3.1-7.2h1.2l3.1,7.2h-1.2L756.6,368.5z M756.2,367.5l-1.5-3.4l-1.5,3.4H756.2
			z"/>
		<path class="st0" d="M759.5,362.7h1.1l4.2,5.5v-5.5h1.1v7.3h-1.1l-4.2-5.5v5.5h-1.1V362.7z"/>
		<path class="st0" d="M767.7,362.7h2.5c0.7,0,1.4,0.1,2.1,0.5c0.6,0.3,1.1,0.7,1.4,1.3c0.7,1.2,0.7,2.6,0,3.7
			c-0.3,0.6-0.8,1-1.4,1.3c-0.6,0.3-1.4,0.5-2.1,0.5h-2.5V362.7z M770.2,369c0.5,0,1-0.1,1.5-0.3c0.4-0.2,0.8-0.5,1-0.9
			c0.5-0.9,0.5-1.9,0-2.7c-0.2-0.4-0.6-0.7-1-0.9c-0.5-0.2-1-0.3-1.5-0.3h-1.5v5.3H770.2z"/>
	</g>
</g>
<g>
	<path d="M461.9,196.3h19.8c2.2,0,4,1.8,4,4v4.3c0,2.2-1.8,4-4,4h-19.8c-2.2,0-4-1.8-4-4v-4.3C457.9,198.1,459.7,196.3,461.9,196.3z
		"/>
	<g>
		<path class="st0" d="M462.5,205.5c-0.5-0.3-0.9-0.7-1.1-1.1c-0.3-0.5-0.4-1.1-0.4-1.6v-4.2h1.1v4.2c0,0.4,0.1,0.8,0.2,1.1
			c0.5,1,1.7,1.4,2.7,0.9c0.1,0,0.1-0.1,0.1-0.1c0.3-0.2,0.6-0.5,0.7-0.8c0.2-0.4,0.3-0.7,0.2-1.1v-4.2h1.1v4.2
			c0,0.6-0.1,1.1-0.4,1.6c-0.3,0.5-0.6,0.9-1.1,1.1C464.8,206,463.5,206,462.5,205.5L462.5,205.5z"/>
		<path class="st0" d="M473.9,204.3h-3.8l-0.6,1.5h-1.2l3.1-7.2h1.2l3.1,7.2h-1.2L473.9,204.3z M473.5,203.3l-1.5-3.4l-1.5,3.4
			H473.5z"/>
		<path class="st0" d="M477.9,199.5v2.1h3.8v1h-3.8v2.2h4.2v1h-5.3v-7.2h5.3v1L477.9,199.5z"/>
	</g>
</g>
<g>
	<path d="M541.3,205.8h25.9c2.2,0,4,1.8,4,4v4.3c0,2.2-1.8,4-4,4h-25.9c-2.2,0-4-1.8-4-4v-4.3C537.3,207.6,539.1,205.8,541.3,205.8z
		"/>
	<g>
		<path class="st0" d="M540.4,208h1.1v7.2h-1.1V208z"/>
		<path class="st0" d="M543.2,208h1.1l4.2,5.5V208h1.1v7.2h-1.1l-4.2-5.5v5.5h-1.1V208z"/>
		<path class="st0" d="M551.3,208h2.5c0.7,0,1.4,0.1,2.1,0.5c1.7,0.9,2.4,3,1.6,4.7c-0.3,0.7-0.9,1.2-1.6,1.6
			c-0.6,0.3-1.4,0.5-2.1,0.5h-2.5L551.3,208z M553.9,214.3c0.5,0,1-0.1,1.5-0.3c0.4-0.2,0.8-0.5,1-0.9c0.5-0.9,0.5-1.9,0-2.7
			c-0.2-0.4-0.6-0.7-1-0.9c-0.5-0.2-1-0.3-1.5-0.3h-1.5v5.3H553.9z"/>
		<path class="st0" d="M559.2,208h1.1v7.2h-1.1V208z"/>
		<path class="st0" d="M566.9,213.7h-3.8l-0.6,1.5h-1.2l3.1-7.2h1.2l3.1,7.2h-1.2L566.9,213.7z M566.5,212.8l-1.5-3.4l-1.5,3.4
			H566.5z"/>
	</g>
</g>
<g>
	<path d="M318.8,174.1h54.8c2.2,0,4,1.8,4,4v4.3c0,2.2-1.8,4-4,4h-54.8c-2.2,0-4-1.8-4-4v-4.3C314.8,175.9,316.6,174.1,318.8,174.1z
		"/>
	<g>
		<path class="st0" d="M317.9,176.4h3c0.5,0,0.9,0.1,1.4,0.3c0.4,0.2,0.8,0.5,1,0.8c0.2,0.4,0.4,0.8,0.4,1.2c0,0.4-0.1,0.8-0.4,1.2
			c-0.3,0.4-0.6,0.7-1,0.9c-0.4,0.2-0.9,0.3-1.4,0.3h-2v2.5h-1.1L317.9,176.4z M320.8,180.1c0.3,0,0.6,0,0.9-0.2
			c0.2-0.1,0.5-0.3,0.6-0.5c0.1-0.2,0.2-0.5,0.2-0.7c0-0.3-0.1-0.5-0.2-0.7c-0.2-0.2-0.4-0.4-0.6-0.5c-0.3-0.1-0.6-0.2-0.9-0.2H319
			v2.7H320.8z"/>
		<path class="st0" d="M326.9,183.5c-0.4-0.2-0.8-0.4-1.1-0.7c-0.3-0.3-0.6-0.6-0.8-1c-0.3-0.6-0.5-1.2-0.5-1.9
			c0-0.4,0.1-0.9,0.2-1.3c0.2-0.4,0.4-0.8,0.7-1.1c0.3-0.3,0.6-0.6,1-0.8c0.6-0.3,1.2-0.5,1.9-0.5c0.4,0,0.9,0.1,1.3,0.2
			c0.4,0.1,0.8,0.4,1.1,0.6c0.3,0.3,0.6,0.6,0.9,1c0.3,0.6,0.5,1.2,0.5,1.9c0,0.4-0.1,0.9-0.2,1.3c-0.1,0.4-0.4,0.8-0.6,1.1
			c-0.7,0.8-1.7,1.3-2.9,1.4C327.8,183.7,327.3,183.7,326.9,183.5z M329.5,182.4c0.8-0.5,1.3-1.4,1.3-2.4c0-0.5-0.1-0.9-0.4-1.4
			c-0.2-0.4-0.6-0.8-1-1c-0.4-0.2-0.8-0.4-1.3-0.4c-0.5,0-0.9,0.1-1.3,0.4c-0.4,0.2-0.8,0.6-1,1c-0.2,0.4-0.4,0.9-0.4,1.4
			c0,0.5,0.1,1,0.4,1.4c0.2,0.4,0.6,0.8,1,1c0.4,0.2,0.9,0.4,1.3,0.4C328.6,182.7,329.1,182.6,329.5,182.4z"/>
		<path class="st0" d="M338.7,179.7c-0.2,0.3-0.4,0.6-0.6,0.8c-0.3,0.2-0.6,0.4-1,0.5l1.9,2.6h-1.2l-1.8-2.5h-1.7v2.5h-1v-7.2h3
			c0.5,0,0.9,0.1,1.4,0.3c0.4,0.2,0.8,0.5,1,0.8c0.2,0.4,0.4,0.8,0.4,1.2C339,179.1,338.9,179.4,338.7,179.7z M334.3,180.1h1.8
			c0.3,0,0.6,0,0.9-0.2c0.2-0.1,0.5-0.3,0.6-0.5c0.1-0.2,0.2-0.5,0.2-0.7c0-0.3-0.1-0.5-0.2-0.7c-0.2-0.2-0.4-0.4-0.6-0.5
			c-0.3-0.1-0.6-0.2-0.9-0.2h-1.8V180.1z"/>
		<path class="st0" d="M342.2,177.4h-2.4v-1h5.8v1h-2.4v6.2h-1.1V177.4z"/>
		<path class="st0" d="M348.4,183.3c-0.5-0.3-0.9-0.7-1.1-1.1c-0.3-0.5-0.4-1.1-0.4-1.6v-4.2h1.1v4.2c0,0.4,0.1,0.8,0.2,1.1
			c0.2,0.3,0.4,0.6,0.7,0.8c0.6,0.4,1.5,0.4,2.1,0c0.3-0.2,0.6-0.5,0.7-0.8c0.2-0.4,0.3-0.7,0.2-1.1v-4.2h1.1v4.2
			c0,0.6-0.1,1.1-0.4,1.6c-0.3,0.5-0.6,0.9-1.1,1.1c-0.5,0.3-1,0.4-1.6,0.4C349.5,183.7,348.9,183.6,348.4,183.3z"/>
		<path class="st0" d="M358.1,179.7h3v2.9c-0.4,0.4-0.8,0.6-1.3,0.8c-0.5,0.2-1,0.3-1.5,0.3c-0.4,0-0.9-0.1-1.3-0.2
			c-0.4-0.2-0.8-0.4-1.1-0.7c-0.3-0.3-0.6-0.6-0.9-1c-0.3-0.6-0.5-1.2-0.5-1.9c0-0.4,0.1-0.9,0.2-1.3c0.2-0.4,0.4-0.8,0.7-1.1
			c0.3-0.3,0.6-0.6,1-0.8c0.6-0.3,1.2-0.5,1.9-0.5c0.5,0,1.1,0.1,1.6,0.3c0.5,0.2,0.9,0.5,1.3,0.8l-0.7,0.7c-0.3-0.3-0.6-0.5-1-0.6
			c-0.4-0.2-0.8-0.2-1.1-0.2c-0.5,0-0.9,0.1-1.3,0.4c-0.4,0.2-0.8,0.6-1,1c-0.2,0.4-0.4,0.9-0.4,1.4c0,0.5,0.1,1,0.4,1.4
			c0.2,0.4,0.6,0.8,1,1c0.4,0.2,0.9,0.4,1.3,0.4c0.3,0,0.6-0.1,0.9-0.2c0.3-0.1,0.6-0.3,0.9-0.4v-1.5h-1.9L358.1,179.7z"/>
		<path class="st0" d="M367.6,182.1h-3.8l-0.6,1.5h-1.2l3.1-7.2h1.2l3.1,7.2h-1.2L367.6,182.1z M367.2,181.1l-1.5-3.4l-1.5,3.4
			H367.2z"/>
		<path class="st0" d="M375.3,182.6v1h-4.9v-7.2h1.1v6.2L375.3,182.6z"/>
	</g>
</g>
</svg>
